<svg id="emcC0dT2tix1" xmlns="http://www.w3.org/2000/svg" xmlns:xlink="http://www.w3.org/1999/xlink" viewBox="0 0 78 80" shape-rendering="geometricPrecision" text-rendering="geometricPrecision" project-id="f31070f792c542f5ae34c3ed176148ae" export-id="2ae3484ce8634f078ba2061175222206" cached="false"><g id="emcC0dT2tix2" transform="matrix(0.999891 -0.01476 0.01476 0.999891 -0.857514 0.399388)"><path d="M32.17,65.57v0c-.12,0-.21-.1-.2-.22.28-8.69,5.4-17.07,5.45-17.16.06-.1.19-.13.29-.07s.13.19.07.29c-.05.08-5.11,8.37-5.39,16.95c0,.11-.1.2-.21.2v0l-.01.01Z" fill="#0a0a0a"/><path d="M29.71,67.45c0,0-.49-2.24.49-2.3.99-.07,3.66-.35,3.66.49s-.07,3.49-.07,4.61-.7,1.75-3.94,1.68-5.35-.91-4.79-2.59s1.48-1.26,2.82-1.12s1.9.49,1.83-.77Z" fill="#e270ad"/><path d="M30.32,72.04c-.15,0-.31,0-.47,0-2.45-.05-4.13-.55-4.73-1.39-.27-.38-.32-.83-.16-1.34.32-.95.77-1.34,1.55-1.34.26,0,.54.04.84.08.17.02.35.05.54.07.24.03.45.06.64.08.25.04.46.07.63.07s.27-.03.33-.1c.1-.11.14-.33.12-.71-.01-.05-.34-1.55.12-2.16.12-.16.27-.24.47-.26l.26-.02c.44-.03,1.05-.08,1.63-.08c1.26,0,1.88.23,1.88.7c0,.39-.02,1.18-.03,2.01-.02.99-.04,2.01-.04,2.61c0,1.29-1,1.79-3.58,1.79v-.01Zm-3.81-3.86c-.57,0-1.01.2-1.35,1.2-.15.44-.1.82.13,1.15.56.78,2.18,1.25,4.56,1.3c3.2.07,3.83-.55,3.83-1.57c0-.6.02-1.62.04-2.61.02-.83.03-1.61.03-2c0-.32-.57-.48-1.66-.48-.58,0-1.18.05-1.62.08l-.27.02c-.13,0-.24.06-.32.17-.4.53-.08,1.99-.08,2.01.03.47-.02.73-.17.88-.14.15-.34.16-.48.16v0c-.18,0-.4-.03-.66-.07-.19-.03-.4-.06-.63-.08-.19-.02-.38-.05-.55-.07-.29-.04-.56-.08-.81-.08l.01-.01Z" fill="#0a0a0a"/><path d="M29.58,66.32c0,0,.79.21,1.74.1.95-.1-.02,1.64-1.62,1.03-.12-.82-.12-1.14-.12-1.14v.01Z" fill="#fffc0d"/><path d="M30.38,67.69c-.23,0-.47-.05-.71-.14-.04-.01-.06-.05-.07-.08-.12-.82-.12-1.14-.12-1.15c0-.03.01-.06.04-.08s.06-.03.09-.02c0,0,.5.13,1.17.13.18,0,.36,0,.54-.03.17-.02.3.01.39.09.07.06.11.15.11.25c0,.41-.57,1.02-1.43,1.02l-.01.01Zm-.58-.31c.19.07.39.1.57.1.75,0,1.22-.53,1.22-.81c0-.04-.01-.08-.04-.1-.04-.04-.12-.05-.22-.04-.18.02-.37.03-.56.03-.49,0-.89-.07-1.08-.11.01.15.04.45.11.93Z" fill="#0a0a0a"/><path d="M33.44,72.08c0,.58-.47,1.05-1.06,1.05s-1.06-.47-1.06-1.05.47-1.05,1.06-1.05s1.06.47,1.06,1.05Z" fill="#3c1c24"/><path d="M32.38,73.24c-.64,0-1.16-.52-1.16-1.15s.52-1.15,1.16-1.15s1.16.52,1.16,1.15-.52,1.15-1.16,1.15Zm0-2.1c-.52,0-.95.42-.95.94s.43.94.95.94.95-.42.95-.94-.43-.94-.95-.94Z" fill="#0a0a0a"/><path d="M28.05,71.72c0,.58-.47,1.05-1.05,1.05s-1.06-.47-1.06-1.05.47-1.05,1.06-1.05s1.05.47,1.05,1.05Z" fill="#3c1c24"/><path d="M27,72.87c-.64,0-1.16-.52-1.16-1.15s.52-1.15,1.16-1.15s1.16.52,1.16,1.15-.52,1.15-1.16,1.15Zm0-2.1c-.52,0-.95.42-.95.94s.43.94.95.94.95-.42.95-.94-.43-.94-.95-.94Z" fill="#0a0a0a"/><path d="M27.58,71.72c0,.32-.26.58-.58.58s-.58-.26-.58-.58.26-.58.58-.58.58.26.58.58Z" fill="#fffc0d"/><path d="M27,72.4c-.38,0-.69-.31-.69-.68s.31-.68.69-.68.68.31.68.68-.31.68-.68.68Zm0-1.15c-.26,0-.48.21-.48.47s.21.47.48.47.47-.21.47-.47-.21-.47-.47-.47Z" fill="#0a0a0a"/><path d="M32.96,72.08c0,.32-.26.58-.58.58s-.58-.26-.58-.58.26-.58.58-.58.58.26.58.58Z" fill="#fffc0d"/><path d="M32.38,72.77c-.38,0-.69-.31-.69-.68s.31-.68.69-.68.69.31.69.68-.31.68-.69.68Zm0-1.16c-.26,0-.48.21-.48.47s.21.47.48.47.48-.21.48-.47-.21-.47-.48-.47Z" fill="#0a0a0a"/></g><g id="emcC0dT2tix16" transform="matrix(0.999929 0.011927 -0.011927 0.999929 0.509501 -0.575388)"><g transform="translate(0.000001 0)"><path d="M53.92,50.82c-2.93,0-5.31-6.1-5.41-6.35-.04-.11.01-.23.12-.27s.23.01.27.12c.02.06,2.37,6.08,5.01,6.08s6.77-4.7,6.81-4.75c.08-.09.21-.1.3-.02.09.07.1.21.02.29-.17.2-4.25,4.9-7.13,4.9v0h.01Z" fill="#0a0a0a"/><path d="M62.47,47.89c0,0-1.57,1.52-2.12.76-.55-.75-2.12-2.75-1.44-3.18.68-.42,2.87-1.7,3.78-2.26s1.77-.31,3.34,2.31c.65,1.09,1.98,3.02,1.36,4.32-.64,1.34-1.83.7-2.61-.12-.5-.53-1.41-2.77-2.32-1.83h.01Z" fill="#e270ad"/><path d="M66.38,50.73c-.5,0-1.11-.34-1.67-.93-.13-.14-.28-.38-.46-.66-.36-.58-.86-1.37-1.32-1.37-.13,0-.26.06-.38.19-.01.01-1.03,1-1.77,1-.22,0-.39-.08-.51-.25l-.15-.2c-.77-1.04-1.58-2.2-1.47-2.82.03-.13.1-.24.21-.31.32-.2.97-.58,1.65-.98.81-.48,1.64-.97,2.13-1.27.29-.18.55-.26.81-.26.78,0,1.59.78,2.68,2.61.06.1.13.21.2.33.7,1.14,1.75,2.86,1.17,4.08-.26.55-.64.83-1.11.83l-.01.01Zm-3.45-3.17c.58,0,1.09.81,1.5,1.47.16.26.32.5.43.63.52.55,1.07.87,1.51.87.39,0,.7-.24.92-.71.53-1.12-.48-2.78-1.16-3.88-.07-.12-.14-.23-.2-.34-1.04-1.74-1.81-2.51-2.5-2.51-.22,0-.44.07-.7.23-.49.3-1.32.8-2.14,1.28-.68.4-1.33.79-1.65.98-.06.04-.1.09-.11.17-.11.57.93,1.98,1.43,2.65l.15.21c.08.11.2.17.35.17.63,0,1.61-.93,1.62-.94.16-.17.34-.26.53-.26l.02-.02Z" fill="#0a0a0a"/><path d="M61.61,48.56c0,0-.23-.74-.79-1.45s1.34-.81,1.65.78c-.6.51-.86.67-.86.67Z" fill="#fffc0d"/><path d="M61.61,48.67c0,0-.03,0-.04,0-.03,0-.05-.04-.06-.07c0,0-.23-.73-.77-1.41-.16-.2-.14-.35-.09-.44.07-.14.24-.22.48-.22.48,0,1.26.36,1.45,1.35c0,.04,0,.07-.04.1-.6.51-.86.67-.87.68-.02.01-.04.02-.06.02v-.01Zm-.49-1.94c-.15,0-.26.04-.29.1-.03.07.03.16.07.21.43.54.67,1.1.76,1.35.12-.09.34-.25.69-.54-.19-.82-.83-1.12-1.23-1.12Z" fill="#0a0a0a"/><path d="M64.36,42.58c.47-.29,1.09-.15,1.38.32s.15,1.08-.32,1.37-1.09.15-1.38-.32-.15-1.08.32-1.37Z" fill="#3c1c24"/><path d="M64.89,44.53c-.39,0-.74-.19-.94-.52-.16-.25-.21-.54-.14-.83s.24-.53.49-.68c.18-.11.38-.17.58-.17.39,0,.74.19.94.52.16.25.21.55.14.83-.07.29-.24.53-.49.68-.18.11-.38.17-.58.17Zm0-1.99c-.17,0-.33.05-.47.13-.2.12-.34.32-.4.55s-.01.47.11.67c.16.26.45.42.76.42.17,0,.33-.05.47-.13.2-.13.34-.32.4-.55.05-.23.01-.47-.11-.67-.16-.26-.45-.42-.76-.42Z" fill="#0a0a0a"/><path d="M66.76,47.08c.47-.29,1.09-.15,1.38.32s.15,1.08-.32,1.37-1.09.15-1.38-.32-.15-1.08.32-1.37Z" fill="#3c1c24"/><path d="M67.29,49.02c-.39,0-.74-.19-.94-.52-.16-.25-.21-.54-.14-.83s.24-.53.49-.68c.18-.11.38-.17.58-.17.38,0,.74.19.94.52.32.52.16,1.19-.36,1.52-.17.11-.38.17-.58.17l.01-.01Zm0-1.99c-.17,0-.33.05-.47.14-.2.13-.35.32-.4.55s-.01.47.11.67c.16.26.45.42.76.42.17,0,.33-.05.47-.14.42-.26.55-.81.29-1.23-.16-.26-.45-.42-.76-.42v.01Z" fill="#0a0a0a"/><path d="M67,47.46c.26-.16.6-.08.76.18s.08.59-.18.75-.6.08-.76-.18-.08-.59.18-.75Z" fill="#fffc0d"/><path d="M67.29,48.58c-.23,0-.44-.12-.56-.31-.19-.31-.1-.71.21-.9.1-.06.22-.1.34-.1.23,0,.44.12.56.31.09.15.12.32.08.49s-.14.32-.29.41c-.11.06-.23.1-.35.1h.01Zm0-1.1c-.08,0-.16.02-.23.07-.21.13-.27.4-.14.61.13.2.41.27.61.14.1-.06.17-.16.2-.28.03-.11,0-.23-.06-.33-.08-.13-.22-.21-.38-.21Z" fill="#0a0a0a"/><path d="M64.6,42.96c.26-.16.6-.08.76.18s.08.6-.18.76-.6.08-.76-.18-.08-.59.18-.75v-.01Z" fill="#fffc0d"/><path d="M64.89,44.08c-.23,0-.44-.12-.56-.31-.19-.31-.1-.71.21-.9.3-.19.72-.09.91.21.19.31.1.71-.21.9-.11.06-.22.1-.35.1Zm0-1.1c-.08,0-.17.02-.24.07-.21.13-.27.4-.14.61.13.2.41.27.62.14s.27-.4.14-.61c-.08-.13-.22-.21-.38-.21Z" fill="#0a0a0a"/></g></g><g id="emcC0dT2tix31" transform="matrix(0.999895 -0.014503 0.014503 0.999895 -0.463236 0.462975)"><path d="M25.08,37.62c-.63,0-1.27-.14-1.94-.45-.11-.05-.15-.18-.1-.28s.18-.15.28-.1c4.62,2.19,8.62-5.35,8.66-5.43.05-.1.18-.14.29-.09.1.05.14.18.09.28-.15.28-3.22,6.07-7.28,6.07v0Z" fill="#0a0a0a"/><g><path d="M23.56,36.81c0,0,.53-3.57-1.21-3.57s-2.67,2.4-1.69,3.93c.63,1,2.38,1.15,2.9-.37v.01Z" fill="#f9d8b7"/><path d="M22.08,38.04v0c-.6,0-1.19-.32-1.51-.81-.53-.84-.55-2.02-.04-2.93.41-.74,1.07-1.16,1.82-1.16.35,0,.63.13.86.39.8.92.48,3.2.46,3.3-.27.77-.86,1.22-1.59,1.22v-.01Zm.27-4.69c-.67,0-1.26.38-1.64,1.05-.47.85-.46,1.94.04,2.72.27.43.8.71,1.33.71v0c.65,0,1.15-.39,1.39-1.06c0,0,.32-2.26-.42-3.11-.18-.21-.41-.31-.7-.31Z" fill="#0a0a0a"/><path d="M21.92,36.45c-.06,0-.12,0-.17-.02-.13-.04-.57-.22-.4-1.05.11-.54.31-.9.6-1.06.28-.16.53-.07.54-.07.05.02.08.08.06.13s-.08.08-.13.06c-.01,0-.18-.06-.37.05-.23.13-.4.45-.5.92-.09.45,0,.74.25.81.27.07.68-.13.81-.5.02-.05.08-.08.14-.06.05.02.08.08.06.13-.14.38-.53.65-.9.65v0l.01.01Z" fill="#0a0a0a"/></g></g><path d="M34.28,31.46c1.23-.05,1.44-2.45,1.45-4-1.97.49-2.74.65-3.01.7.03,1.24.27,3.35,1.56,3.31v-.01Z" fill="#f9d8b7"/><path d="M34.24,31.57c-1.34,0-1.59-2.14-1.62-3.41c0-.05.04-.1.09-.11.3-.05,1.08-.21,3-.69.03,0,.06,0,.09.02s.04.05.04.08c0,1.85-.28,4.06-1.55,4.11h-.05Zm-1.41-3.33c.04,1.2.27,3.12,1.41,3.12h.04c1.12-.04,1.33-2.32,1.35-3.77-1.67.42-2.45.58-2.79.65h-.01Z" fill="#0a0a0a"/><path d="M51.67,35.23c-.92-2.1-9.85.56-14.64-8.11-.48.12-.91.23-1.3.33c0,1.56-.21,3.96-1.45,4-1.29.05-1.53-2.06-1.56-3.31-.09.02-.13.02-.13.02s-3.38,9.44,2.6,17.75l-1.27,1.75c0,0,3.1,2.73,9.29,1.05s10.06-8.11,8.45-13.49l.01.01Z" fill="#bedc40"/><path d="M39.36,49.37v0c-3.62,0-5.43-1.55-5.5-1.62-.04-.04-.05-.1-.02-.14l1.22-1.69c-5.89-8.25-2.61-17.69-2.57-17.79.01-.04.05-.06.09-.07c0,0,.04,0,.12-.02.03,0,.06,0,.08.02s.04.05.04.08c.03,1.2.25,3.2,1.41,3.2h.04c1.16-.05,1.34-2.46,1.35-3.9c0-.05.03-.09.08-.1.38-.1.81-.21,1.29-.33.05-.01.1,0,.12.05c3.17,5.75,8.15,6.47,11.45,6.95c1.67.24,2.87.42,3.2,1.17.75,2.49.38,5.25-1.03,7.78-1.6,2.87-4.33,5-7.48,5.85-1.34.36-2.65.55-3.88.55l-.01.01Zm-5.29-1.71c.38.29,2.15,1.51,5.29,1.51v0c1.21,0,2.5-.18,3.83-.54c3.09-.84,5.77-2.94,7.35-5.75c1.39-2.48,1.75-5.18,1.02-7.61-.28-.63-1.43-.8-3.03-1.03-3.32-.48-8.34-1.21-11.56-6.98-.42.11-.8.2-1.14.29-.01,1.83-.3,3.98-1.55,4.03h-.05c-1.25,0-1.56-1.86-1.61-3.15-.44,1.43-2.74,9.95,2.66,17.45.03.04.03.09,0,.12l-1.21,1.67v-.01Z" fill="#0a0a0a"/><path d="M36.39,47.43c0,0-.06-.01-.08-.04l-1.2-1.4c0,0-.03-.11.01-.15.05-.04.11-.03.15.01l1.2,1.4c0,0,.03.11-.01.15-.02.02-.04.02-.07.02v0v.01Z" fill="#0a0a0a"/><path d="M33.44,34.15c0,.6-.27,1.08-.6,1.08s-.6-.48-.6-1.08.27-1.08.6-1.08.6.48.6,1.08Z" fill="#fffc0d"/><path d="M36.81,37.3c0,.6-.27,1.08-.6,1.08s-.6-.48-.6-1.08.27-1.08.6-1.08.6.49.6,1.08Z" fill="#fffc0d"/><path d="M38.43,31.71c0,.6-.27,1.08-.6,1.08s-.6-.48-.6-1.08.27-1.08.6-1.08.6.48.6,1.08Z" fill="#fffc0d"/><path d="M41.35,41.18c0,.6-.27,1.08-.6,1.08s-.6-.48-.6-1.08.27-1.08.6-1.08.6.48.6,1.08Z" fill="#fffc0d"/><path d="M35.65,41.94c0,.6-.27,1.08-.6,1.08s-.6-.48-.6-1.08.27-1.08.6-1.08.6.49.6,1.08Z" fill="#fffc0d"/><path d="M50.78,39.92c0,.6-.27,1.08-.6,1.08s-.6-.49-.6-1.08.27-1.08.6-1.08.6.48.6,1.08Z" fill="#fffc0d"/><path d="M42.41,34.89c0,.6-.27,1.08-.6,1.08s-.6-.48-.6-1.08.27-1.08.6-1.08.6.48.6,1.08Z" fill="#fffc0d"/><path d="M45.93,40.06c0,.6-.27,1.08-.6,1.08s-.6-.48-.6-1.08.27-1.08.6-1.08.6.48.6,1.08Z" fill="#fffc0d"/><path d="M44.94,45.72c0,.6-.27,1.08-.6,1.08s-.6-.48-.6-1.08.27-1.08.6-1.08.6.48.6,1.08Z" fill="#fffc0d"/><path d="M39.95,46.7c0,.6-.27,1.08-.6,1.08s-.6-.49-.6-1.08.27-1.08.6-1.08.6.49.6,1.08Z" fill="#fffc0d"/><path d="M47.2,35.86c0,.6-.27,1.08-.6,1.08s-.6-.48-.6-1.08.27-1.08.6-1.08.6.48.6,1.08Z" fill="#fffc0d"/><g id="emcC0dT2tix53" transform="translate(0.286991 -0.399998)"><path d="M36.96,28.18c-.08,0-.16-.05-.2-.13-.04-.11,0-.23.11-.27.07-.03,7.33-3.01,13.81-.49.11.04.16.16.12.27s-.16.16-.27.12c-6.32-2.46-13.42.46-13.49.49-.03.01-.06.02-.08.02v0-.01Z" fill="#0a0a0a"/><g transform="translate(0.000001 0)"><path d="M51.44,28.63c0,0,1,2.25,1.64,1.68.63-.58-.79-1.99-.79-1.99s1.69.94,1.74.21-1.37-.89-1.37-.89s1.69-.63,1-1.1-1.53.84-1.53.84.79-1.63-.05-1.63-1.38,1.54-1.38,1.54c-.36.51.28,1.24-.15,1.98-.42.73.9.79.9-.63l-.01-.01Z" fill="#f9d8b7"/><path d="M52.85,30.51c-.51,0-1.06-.95-1.34-1.49-.05.26-.15.43-.24.55-.15.19-.36.31-.55.31v0c-.14,0-.26-.06-.32-.17-.04-.08-.1-.24.05-.49.2-.35.14-.71.08-1.06-.06-.33-.12-.64.07-.92.06-.17.6-1.59,1.48-1.59.23,0,.35.11.41.2.14.23.08.61-.02.95.24-.24.55-.46.87-.46.14,0,.26.04.38.12.19.13.22.28.21.38-.04.32-.54.6-.9.77.45.1,1.15.36,1.11.94-.01.14-.08.38-.46.38-.28,0-.66-.13-.95-.26.29.35.64.87.63,1.29c0,.18-.07.33-.2.44-.09.08-.19.12-.3.12l-.01-.01Zm-1.41-1.99c0,0,.08.02.09.06.3.66.91,1.71,1.31,1.71.06,0,.11-.02.16-.07.08-.08.12-.17.13-.29.01-.61-.91-1.54-.92-1.55-.04-.04-.04-.1-.01-.14s.09-.05.14-.03c0,0,.86.48,1.34.48.21,0,.24-.09.25-.18.04-.62-1.27-.78-1.28-.78-.05,0-.09-.04-.09-.09s.02-.09.07-.11c.44-.16,1.07-.5,1.1-.74c0-.02.01-.09-.12-.18-.08-.06-.17-.08-.26-.08-.45,0-.96.65-1.12.89-.03.05-.09.06-.14.04-.05-.03-.07-.09-.04-.14.19-.39.43-1.11.27-1.37-.03-.04-.08-.1-.23-.1-.76,0-1.28,1.45-1.28,1.46c0,0,0,.02-.01.03-.15.21-.1.47-.04.77.07.36.14.78-.1,1.19-.07.12-.09.22-.05.29.03.06.1.06.14.06.1,0,.25-.06.38-.23.1-.13.23-.38.23-.81c0-.05.03-.09.08-.1c0,0,.02,0,.02,0l-.02.01Z" fill="#0a0a0a"/></g></g><g id="emcC0dT2tix58" transform="matrix(0.99984 0.017915 -0.017915 0.99984 0.396921 -0.746659)"><path d="M47.21,19.09c0,0,.63-1.26.68-2.93.05-1.68,1.43,1.52-.68,2.93Z" fill="#64313d"/><path d="M47.21,19.2c0,0-.05,0-.07-.03-.04-.03-.05-.08-.03-.13c0-.01.62-1.26.68-2.89c0-.14.02-.58.26-.58.16,0,.27.23.33.43.25.81.16,2.32-1.11,3.18-.02.01-.04.02-.06.02Zm.85-3.4c0,0-.05.14-.05.36-.04,1.15-.34,2.09-.53,2.59.79-.73.83-1.72.8-2.14-.03-.45-.15-.73-.22-.8v-.01Z" fill="#0a0a0a"/><path d="M47.53,18.93c0,0,2.06-2.19,2.53-1.88.47.32-2.43,2.82-2.53,1.88Z" fill="#64313d"/><path d="M47.76,19.24c-.19,0-.31-.11-.33-.3c0-.03,0-.06.03-.08.19-.2,1.84-1.94,2.5-1.94.07,0,.13.01.17.05.05.04.14.12.08.31-.18.59-1.79,1.97-2.44,1.97l-.01-.01Zm-.11-.28c.02.05.05.07.12.07.55,0,2.09-1.33,2.24-1.82.01-.04.01-.07,0-.07s-.03-.01-.06-.01c-.42,0-1.59,1.08-2.3,1.84v-.01Z" fill="#0a0a0a"/><path d="M47.95,18.99c0,0,.74.47,1.95.26s-.42,1.68-1.95-.26Z" fill="#64313d"/><path d="M49.46,19.97c-.39,0-.98-.16-1.59-.92-.03-.04-.03-.1,0-.14.04-.04.09-.05.14-.02c0,0,.48.3,1.28.3v0c.19,0,.39-.02.6-.05.42-.07.55.09.55.24c0,.27-.44.59-.98.59Zm-1.11-.7c.43.4.82.49,1.1.49.47,0,.77-.27.77-.38c0-.03-.08-.05-.15-.05-.04,0-.1,0-.15.02-.21.04-.42.05-.63.05v0c-.39,0-.7-.06-.94-.14v.01Z" fill="#0a0a0a"/><path d="M47.53,18.93c.16.24.01.62-.34.85s-.76.23-.93-.01c-.16-.24-.01-.62.34-.86.35-.23.76-.23.92.02h.01Z" fill="#64313d"/><path d="M46.67,20.06c-.21,0-.39-.09-.49-.23-.08-.11-.1-.25-.07-.4.04-.23.21-.45.44-.6.39-.26.88-.24,1.07.04.19.29.03.74-.37,1-.18.12-.39.19-.58.19Zm.46-1.21c-.15,0-.31.05-.46.15-.19.12-.32.3-.35.47-.01.07-.02.16.04.24.12.18.49.18.78-.01.29-.2.44-.52.31-.71-.06-.09-.17-.14-.32-.14Z" fill="#0a0a0a"/><path d="M46.46,19.6c.16.24-.03.65-.44.92-.4.27-.86.29-1.02.05s.03-.65.44-.92c.4-.27.86-.29,1.02-.05Z" fill="#64313d"/><path d="M45.38,20.84c-.21,0-.38-.08-.47-.21-.07-.1-.09-.23-.06-.37.05-.25.25-.51.53-.7.44-.29.98-.3,1.17-.02.2.29,0,.76-.46,1.07-.23.15-.48.24-.7.24l-.01-.01Zm.7-1.3c-.18,0-.39.07-.58.2-.23.16-.4.37-.44.56-.02.09,0,.16.03.21.07.11.22.12.29.12.18,0,.39-.07.58-.2.35-.23.53-.59.41-.78-.05-.08-.16-.12-.29-.12v.01Z" fill="#0a0a0a"/><path d="M45.12,20.46c.1.32-.2.7-.66.84-.47.14-.92-.01-1.02-.34-.1-.32.2-.7.67-.84s.92.01,1.02.33l-.01.01Z" fill="#64313d"/><path d="M44.11,21.45c-.39,0-.69-.18-.78-.46-.06-.19,0-.4.14-.58s.35-.31.6-.39c.13-.04.25-.06.38-.06.39,0,.69.18.78.46.11.38-.22.81-.74.97-.13.04-.25.06-.38.06Zm.33-1.27c-.1,0-.21.02-.32.05-.21.06-.38.17-.49.31-.1.13-.14.27-.1.39.06.19.28.31.57.31.1,0,.21-.02.31-.05.41-.12.68-.44.6-.71-.06-.19-.28-.31-.57-.31v.01Z" transform="translate(-0.223557 0.25)" fill="#0a0a0a"/><path d="M43.53,21.05c0,.41-.39.73-.88.73s-.88-.33-.88-.73.39-.73.88-.73.88.33.88.73Z" fill="#64313d"/><path d="M42.66,21.89c-.54,0-.99-.38-.99-.84s.44-.84.99-.84.99.38.99.84-.44.84-.99.84Zm0-1.47c-.43,0-.77.28-.77.63s.35.63.77.63.77-.28.77-.63-.35-.63-.77-.63Z" fill="#0a0a0a"/></g><g id="emcC0dT2tix73" transform="translate(0.000001 0.000004)"><path d="M27.75,31.17c0,0-.58.94-1.67,1.67-1.1.73,1.61.31,1.67-1.67Z" fill="#64313d"/><path d="M25.94,33.28v0c-.17,0-.21-.08-.23-.13-.04-.11.06-.24.3-.4c1.06-.71,1.64-1.63,1.64-1.64.03-.04.07-.06.12-.05s.08.06.07.1c-.05,1.47-1.47,2.1-1.91,2.1l.01.02Zm1.64-1.7c-.27.34-.76.88-1.45,1.35-.1.06-.15.11-.18.14.35-.01,1.37-.48,1.63-1.49Z" fill="#0a0a0a"/><path d="M27.77,31.45c0,0-.61,2.26-.2,2.45.41.18.87-2.76.2-2.45Z" fill="#64313d"/><path d="M27.6,34.01c-.06,0-.11-.05-.11-.1s.05-.1.1-.1c.14-.05.4-.94.4-1.71c0-.41-.08-.56-.14-.56s-.11-.05-.11-.1.05-.11.11-.11c.23,0,.35.26.35.77c0,.37-.06.83-.16,1.21-.19.71-.38.71-.45.71l.01-.01Z" fill="#0a0a0a"/><path d="M27.98,31.7c0,0,.62.29.98,1.18.36.88.94-.97-.98-1.18Z" fill="#64313d"/><path d="M29.18,33.22v0c-.08,0-.21-.05-.31-.3-.34-.83-.92-1.12-.93-1.12-.05-.02-.07-.07-.05-.12.01-.05.06-.08.11-.08c1.2.12,1.47.87,1.45,1.24-.01.23-.12.38-.27.38Zm-.75-1.32c.21.19.45.49.63.94.05.12.1.16.11.17.03-.02.08-.14.05-.32-.02-.15-.15-.58-.79-.79Z" fill="#0a0a0a"/><path d="M27.77,31.45c.23,0,.42-.25.43-.58s-.17-.6-.39-.6c-.23,0-.42.25-.43.58s.17.6.39.6Z" fill="#64313d"/><path d="M27.78,31.56h-.01c-.11,0-.22-.05-.3-.15-.13-.13-.2-.34-.19-.56.01-.38.25-.68.53-.68.13,0,.23.05.32.14.13.13.2.35.19.57-.01.38-.24.68-.53.68h-.01Zm.02-1.18c-.17,0-.31.22-.32.48c0,.17.04.32.13.41.03.03.09.08.16.08v.1c0,0,0-.1,0-.1.16,0,.31-.22.32-.48c0-.17-.04-.32-.13-.42-.03-.03-.09-.08-.16-.08v0v.01Z" fill="#0a0a0a"/><path d="M27.77,30.47c.23,0,.42-.29.44-.67.01-.38-.16-.69-.39-.69s-.42.29-.43.67c0,.38.16.69.39.7l-.01-.01Z" fill="#64313d"/><path d="M27.78,30.58c0,0-.01,0-.01,0-.29,0-.51-.36-.49-.8.01-.43.25-.77.53-.77.11,0,.21.05.29.14.14.15.22.4.21.67-.01.43-.25.77-.53.77v-.01Zm.03-1.37c-.15,0-.31.23-.32.57s.14.58.29.59v.1c0,0,0-.1,0-.1.15,0,.31-.23.32-.57c0-.21-.05-.41-.15-.52-.04-.04-.09-.07-.14-.07v0Z" fill="#0a0a0a"/><path d="M27.79,29.23c.26-.07.38-.42.28-.79-.1-.36-.39-.6-.65-.53-.25.07-.38.42-.28.78s.39.6.65.53v.01Z" fill="#64313d"/><path d="M27.7,29.35v0c-.28,0-.56-.26-.66-.62-.07-.24-.04-.49.06-.67.07-.12.17-.21.3-.24.31-.08.66.19.77.6.12.42-.04.83-.36.91-.04.01-.08.02-.12.02h.01ZM27.52,28c0,0-.04,0-.06,0-.09.02-.14.09-.17.14-.08.13-.09.32-.04.51.08.3.32.51.52.46s.29-.36.21-.66c-.07-.27-.27-.47-.45-.47l-.01.02Z" fill="#0a0a0a"/></g><path d="M27.53,27.95c.27-.17.33-.56.13-.88s-.59-.44-.86-.27-.33.56-.12.88c.2.32.58.44.85.27Z" fill="#64313d"/><path d="M27.26,28.12v0c-.26,0-.52-.15-.67-.4-.23-.37-.16-.83.16-1.03.1-.06.21-.09.33-.09.26,0,.52.15.67.4.23.37.16.83-.16,1.03-.1.06-.21.09-.33.09Zm-.19-1.3c-.08,0-.15.02-.21.06-.22.14-.26.47-.09.74.12.19.31.3.49.3v0c.08,0,.15-.02.21-.06.22-.14.26-.47.09-.74-.12-.19-.31-.3-.5-.3h.01Z" fill="#0a0a0a"/><path d="M34.64,6.51c-1.69-.41-3.66-.62-5.4-.49-.61.05-1.22.15-1.84.31-3.56.91-7,3.61-7.58,7.3-.23,1.46-.07,3.2.31,4.62c0,0-.05-6.08,4.54-8.49c0,0,1.06,8.12,8.5,11.22c4.64,1.93,7.56.66,9.1-.57c1.57-5.71-1.6-12.44-7.62-13.89l-.01-.01Z" fill="#64313d"/><path d="M37.64,22.07v0c-1.4,0-2.92-.34-4.51-1-6.86-2.85-8.34-10.02-8.54-11.15-4.35,2.4-4.35,8.27-4.35,8.33c0,.05-.04.1-.09.11-.05,0-.1-.03-.12-.08-.41-1.54-.53-3.28-.31-4.66.62-3.91,4.29-6.53,7.66-7.39.62-.16,1.25-.26,1.85-.31c1.62-.13,3.62.06,5.43.49c2.66.64,4.94,2.36,6.42,4.85c1.63,2.74,2.11,6.17,1.28,9.18c0,.02-.02.04-.04.06-.91.72-2.46,1.59-4.69,1.59l.01-.02ZM24.67,9.66c0,0,.03,0,.05.01.03.02.05.05.06.08.01.08,1.14,8.1,8.44,11.13c1.57.65,3.06.98,4.43.98c2.15,0,3.65-.82,4.53-1.52.8-2.95.32-6.3-1.27-8.98-1.45-2.44-3.68-4.12-6.28-4.75-1.79-.43-3.77-.61-5.37-.49-.6.05-1.21.15-1.82.31-3.3.85-6.9,3.41-7.51,7.22-.18,1.15-.13,2.55.14,3.87.16-1.71.92-5.94,4.55-7.85.02,0,.03-.01.05-.01Z" fill="#0a0a0a"/><path d="M33.17,20.98c-7.44-3.09-8.5-11.22-8.5-11.22-4.59,2.41-4.54,8.49-4.54,8.49-.07,5.24,2.18,10.13,10.27,10.55s10.63-4.68,11.69-7.83c.06-.19.12-.38.17-.57-1.54,1.23-4.46,2.5-9.1.57l.01.01Z" fill="#f9d8b7"/><path d="M31.33,28.93c-.3,0-.61,0-.93-.02-8.69-.45-10.44-6.05-10.38-10.66c0-.06,0-6.17,4.6-8.58.03-.01.07-.02.1,0s.05.05.06.08c.01.08,1.14,8.1,8.44,11.13c1.57.65,3.06.98,4.43.98c2.17,0,3.68-.84,4.56-1.54.03-.03.09-.03.12,0c.04.03.06.07.04.12-.05.19-.11.39-.18.58-1.79,5.33-5.34,7.92-10.86,7.92v-.01ZM24.59,9.92c-4.35,2.4-4.35,8.27-4.35,8.33-.06,4.52,1.65,10.01,10.18,10.45.31.02.62.02.92.02c5.42,0,8.9-2.54,10.66-7.78.03-.09.06-.17.08-.26-.93.68-2.4,1.39-4.43,1.39-1.4,0-2.92-.34-4.51-1-6.86-2.85-8.34-10.02-8.54-11.15h-.01Z" fill="#0a0a0a"/><path d="M34.64,6.51c-1.69-.41-3.66-.62-5.4-.49-.61.05-1.22.15-1.84.31-3.56.91-7,3.61-7.58,7.3-.23,1.46-.07,3.2.31,4.62c0,0-.05-6.08,4.54-8.49c0,0,1.06,8.12,8.5,11.22c4.64,1.93,7.56.66,9.1-.57c1.57-5.71-1.6-12.44-7.62-13.89l-.01-.01Z" fill="#64313d"/><path d="M37.64,22.07v0c-1.4,0-2.92-.34-4.51-1-6.86-2.85-8.34-10.02-8.54-11.15-4.35,2.4-4.35,8.27-4.35,8.33c0,.05-.04.1-.09.11-.05,0-.1-.03-.12-.08-.41-1.54-.53-3.28-.31-4.66.62-3.91,4.29-6.53,7.66-7.39.62-.16,1.25-.26,1.85-.31c1.62-.13,3.62.06,5.43.49c2.66.64,4.94,2.36,6.42,4.85c1.63,2.74,2.11,6.17,1.28,9.18c0,.02-.02.04-.04.06-.91.72-2.46,1.59-4.69,1.59l.01-.02ZM24.67,9.66c0,0,.03,0,.05.01.03.02.05.05.06.08.01.08,1.14,8.1,8.44,11.13c1.57.65,3.06.98,4.43.98c2.15,0,3.65-.82,4.53-1.52.8-2.95.32-6.3-1.27-8.98-1.45-2.44-3.68-4.12-6.28-4.75-1.79-.43-3.77-.61-5.37-.49-.6.05-1.21.15-1.82.31-3.3.85-6.9,3.41-7.51,7.22-.18,1.15-.13,2.55.14,3.87.16-1.71.92-5.94,4.55-7.85.02,0,.03-.01.05-.01Z" fill="#0a0a0a"/><path d="M25.45,18.78c0,0-.06-.02-.09-.04-3.77-5.18-.8-9-.77-9.04.04-.05.1-.05.15-.02.05.04.06.1.02.15-.03.04-2.89,3.74.78,8.78.04.05.02.11-.02.15-.02.01-.04.02-.06.02v0h-.01Z" fill="#0a0a0a"/><path d="M23.05,18.53c0,0-.08-.02-.1-.06-2.22-4.93.8-8.26.83-8.29.04-.04.11-.04.15,0s.05.11,0,.15c-.03.03-2.95,3.26-.79,8.06.02.05,0,.11-.05.14-.01,0-.03,0-.04,0v0Z" fill="#0a0a0a"/><path d="M27.1,19.87c.07.47-.12.88-.42.92s-.59-.31-.66-.77c-.07-.47.12-.88.42-.92s.59.31.66.77Z"/><path d="M22.73,20.8c.07.47-.12.88-.42.92s-.59-.3-.66-.77.12-.88.42-.92.59.3.66.77Z"/><path d="M29.05,28.68c.43.05.88.1,1.35.12.21,0,.41.02.62.02.39-.59.56-1.38.39-2.27-1.59.07-2.16,1.35-2.36,2.12v.01Z" fill="#e6663f"/><path d="M31.02,28.93v0c-.2,0-.41,0-.62-.02-.43-.02-.86-.06-1.36-.13-.03,0-.06-.02-.07-.04-.02-.03-.02-.06-.02-.09.2-.79.79-2.13,2.46-2.2.05,0,.1.03.11.08.17.86.02,1.7-.41,2.35-.02.03-.05.05-.09.05Zm-1.83-.34c.45.05.84.09,1.23.11.19,0,.37.02.55.02.36-.57.49-1.3.36-2.05-1.38.11-1.93,1.2-2.14,1.92Z" fill="#0a0a0a"/><path d="M23.45,26.56c1.35,1.06,3.17,1.82,5.6,2.12.2-.77.77-2.06,2.36-2.12-.17-.91-.7-1.92-1.73-2.96-1.26,4.26-4.83,3.46-6.23,2.96Z" fill="#d92231"/><path d="M29.05,28.79c0,0,0,0-.01,0-2.32-.29-4.22-1.01-5.65-2.14-.04-.03-.05-.09-.03-.13.02-.05.08-.06.13-.05.51.18,1.3.4,2.16.4c1.97,0,3.29-1.11,3.94-3.29.01-.04.04-.06.08-.07.04,0,.07,0,.1.03.95.97,1.56,2.01,1.75,3.01c0,.03,0,.06-.02.08s-.05.04-.08.04c-1.53.07-2.07,1.31-2.26,2.05-.01.05-.06.08-.1.08l-.01-.01Zm-5.02-1.94c1.31.88,2.97,1.46,4.95,1.72.22-.78.8-1.98,2.31-2.11-.2-.88-.73-1.8-1.55-2.66-.87,2.7-2.7,3.27-4.09,3.27-.59,0-1.15-.1-1.62-.22Z" fill="#0a0a0a"/><path d="M29.7,23.64c-.73,0-1.14-.44-1.14-.44-.04-.04-.04-.11,0-.15s.11-.03.15,0c.03.04.86.91,2.34-.12.05-.03.11-.02.15.03.03.05.02.11-.03.15-.58.4-1.08.53-1.48.53v0h.01Z" fill="#0a0a0a"/><g id="emcC0dT2tix103" transform="matrix(0.114286 0 0 0.114286 56.100571 70.742857)"><rect id="emcC0dT2tix104" width="175" height="61.25" rx="28" ry="28" transform="matrix(1 0 0 1 -8.375042 -5.249997)" opacity="0.2" fill="#112346" stroke-width="0"/><path id="emcC0dT2tix105" d="M100.296,8.840967h1.86105v8.05706h-1.86105v-8.05706Zm.93793-1.32776c-.33752,0-.62035-.10561-.84864-.31684-.22829-.22129-.34251-.49288-.34251-.81477s.11422-.58843.34251-.79967c.22829-.22129.51112-.33193.84864-.33193s.62035.10562.84864.31685c.22829.20117.34251.45766.34251.76949c0,.33195-.11422.61358-.34251.84494-.21832.22129-.5013.33193-.84864.33193Zm17.50762,4.76743v4.61696h-1.86105v-4.37556c0-.70411-.16378-1.23218-.49133-1.58425-.32755-.3621-.7941-.54316-1.39949-.54316-.68501,0-1.2259.21123-1.62294.63369-.39705.41241-.59557,1.0109-.59557,1.7955v4.07379h-1.86105v-11.19538h1.86105v4.07379c.30776-.33195.68486-.58341,1.13162-.75441.45658-.18106.96271-.27159,1.51855-.27159c1.00259,0,1.80651.29673,2.41206.8902.60539.59346.90817,1.4736.90817,2.64042h-.00002Zm-11.14925,4.72426c-.87342,0-1.54846-.23136-2.02483-.69407-.47652-.46269-.71478-1.13663-.71478-2.02181v-3.87763h-1.3102v-1.50882h1.3102v-1.84075h1.8612v1.84075h2.12908v1.50882h-2.12908v3.83237c0,.39231.09428.69407.28283.9053.18855.20117.46156.30176.81888.30176.41684,0,.76433-.11065,1.04218-.33195l.52109,1.34285c-.21832.18106-.48634.31685-.80392.40738-.30776.09053-.63531.13579-.98265.13579v.00001Zm-13.2957-.10591l-2.05474-5.55243-2.08436,5.55243h-1.78672l-2.91819-8.05706h1.75696l2.09931,5.94472l2.18861-5.94472h1.56327l2.14403,5.97489l2.15884-5.97489h1.65271l-2.93315,8.05706h-1.78657Zm-13.58488-3.98495c0,.13076-.00982.31685-.02976.55826h-6.23841c.10923.59347.39221,1.06623.84879,1.41829.4664.34199,1.04218.51299,1.72704.51299.87342,0,1.59303-.2917,2.15884-.87511l.99761,1.16179c-.35731.43252-.80906.75943-1.35492.98072s-1.16138.33195-1.84625.33195c-.87342,0-1.64274-.17603-2.30766-.52808-.66507-.35206-1.18118-.83991-1.54846-1.46355-.35731-.63369-.53605-1.34787-.53605-2.14251c0-.78458.17375-1.48869.52109-2.11234.35731-.63371.84864-1.12657,1.47398-1.47863s1.33015-.52808,2.11427-.52808c.77415,0,1.464.17603,2.06955.52808.61537.34199,1.09189.82985,1.42926,1.46354.34749.62364.52109,1.34788.52109,2.1727l-.00001-.00002Zm-4.01989-2.65551c-.59557,0-1.1017.18106-1.5187.54318-.40687.35206-.6551.82481-.74439,1.41829h4.51122c-.07932-.58341-.32256-1.05617-.72943-1.41829-.40702-.36212-.9133-.54318-1.5187-.54318Zm-7.67538,6.63907v-1.04108c-.30776.38223-.68985.66889-1.14643.86002-.44676.19112-.94291.28668-1.48893.28668-.76433,0-1.45403-.17101-2.06955-.51301-.60539-.34199-1.08191-.82481-1.42925-1.44846-.34749-.63369-.52109-1.35793-.52109-2.17268s.17359-1.53397.52109-2.1576c.34734-.62364.82386-1.10646,1.42925-1.44846.61552-.34201,1.30522-.51301,2.06955-.51301.52607,0,1.00743.09053,1.44421.27159s.8089.45265,1.11666.81477v-4.13414h1.86105v11.19538h-1.78656Zm-.35731-2.70078c.20834-.38223.31259-.82481.31259-1.32774s-.10425-.94553-.31259-1.32776c-.2085-.38223-.49133-.67394-.84864-.87511-.35746-.21125-.75935-.31685-1.2061-.31685-.4466,0-.84864.10561-1.20595.31685-.35731.20117-.64014.49288-.84864.87511s-.31259.82481-.31259,1.32776.1041.94551.31259,1.32774.49132.67897.84864.8902c.35731.20118.75935.30176,1.20595.30176.44676,0,.84864-.10058,1.2061-.30176.35731-.21123.64014-.50796.84864-.8902ZM56.93698,8.749727c1.1712,0,2.06456.28667,2.67993.86002.62534.56329.93793,1.41829.93793,2.56499v4.72257h-1.75681v-.98072c-.22829.35206-.55584.62363-.98265.81475-.41699.18106-.92312.27159-1.5187.27159s-1.11666-.10059-1.56327-.30176c-.44671-.21125-.79411-.49791-1.04225-.86003-.23823-.37217-.35733-.78961-.35733-1.25231c0-.72424.26304-1.30262.7891-1.73514.536-.44259,1.37467-.66388,2.51626-.66388h2.05459v-.1207c0-.56329-.16876-.99581-.50628-1.29757-.32755-.30178-.81888-.45265-1.47398-.45265-.4466,0-.88837.0704-1.32501.21123-.42681.14083-.78911.33696-1.08691.58844l-.72956-1.37302c.41689-.32189.91812-.56832,1.50373-.73932s1.20595-.2565,1.8612-.2565l.00001.00001Zm-.25322,6.88017c.46655,0,.8784-.10562,1.23587-.31685.36714-.22129.62519-.53312.77415-.93545v-.93547h-1.92073c-1.07194,0-1.60784.35709-1.60784,1.07126c0,.34199.13386.61357.40188.81475s.6403.30176,1.11666.30176h.00001Zm-10.69116.06065h-.86354l-3.42441-5.7033v6.91036h-1.8462v-10.56169h1.59309l4.13907,7.00089l4.06463-7.00089h1.59309l.01488,10.56169h-1.8313l-.0149-7.00089-3.42441,5.79383ZM109.33381,29.33985v15.15h-3.372v-1.962c-.57764.71189-1.32435,1.2678-2.172,1.617-.90563.36793-1.87555.55151-2.853.54-1.37977.02378-2.74245-.30785-3.957-.963-1.13745-.62625-2.07375-1.56255-2.7-2.7-1.30391-2.56373-1.30391-5.59627,0-8.16.6281-1.13606,1.56394-2.0719,2.7-2.7c1.21546-.65275,2.57751-.98423,3.957-.963.92501-.00857,1.84259.16578,2.7.513.8172.33509,1.54983.84741,2.145,1.5v-.762c0-.28643.11378-.56114.31633-.76367s.47724-.31633.76367-.31633l2.472-.03Zm-4.767,11.01c1.70241-1.9736,1.70241-4.8964,0-6.87-1.79985-1.74394-4.65915-1.74394-6.459,0-1.68467,1.98016-1.68467,4.88984,0,6.87.84101.87157,2.01145,1.34672,3.222,1.308c1.21374.03854,2.38799-.43377,3.237-1.302v-.006Zm17.94,3.324c-.4506.35546-.96927.61479-1.524.762-.61408.17233-1.2492.25816-1.887.255-1.41013.09088-2.79902-.37927-3.864-1.308-.9622-1.0234-1.45181-2.403-1.35-3.804v-13.59h2.469c.28643,0,.56114.11378.76367.31633s.31633.47724.31633.76367v2.379h4.047v2.853h-4.047v7.2c-.04376.61441.15433,1.2216.552,1.692.40613.41048.96838.62774,1.545.597.22613.00135.45196-.01672.675-.054.80958-.16952,1.6251.26156,1.941,1.026l.363.912Zm5.079.027c-1.20043-.63362-2.19844-1.59212-2.88-2.766-1.3796-2.49392-1.3796-5.52208,0-8.016.68541-1.16705,1.68279-2.11975,2.88-2.751c2.61457-1.32565,5.70443-1.32565,8.319,0c1.19702.63151,2.19433,1.58416,2.88,2.751c1.3796,2.49392,1.3796,5.52208,0,8.016-.68182,1.17368-1.67976,2.13211-2.88,2.766-2.61457,1.32565-5.70443,1.32565-8.319,0Zm7.392-3.369c1.70241-1.9736,1.70241-4.8964,0-6.87-1.79985-1.74394-4.65915-1.74394-6.459,0-1.68467,1.98016-1.68467,4.88984,0,6.87.84101.87157,2.01145,1.34672,3.222,1.308c1.21059.04404,2.38438-.42048,3.237-1.281v-.027Zm17.022-11.16v3.372c-.27077-.05406-.54592-.08318-.822-.087-1.19439-.06706-2.36247.36798-3.222,1.2-.83467.95959-1.25439,2.2112-1.167,3.48v7.353h-3.552v-15.15h2.298c.28643,0,.56113.11379.76367.31633s.31633.47724.31633.76367v1.134c1.014-1.588,2.809-2.382,5.385-2.382Zm-107.022,15.042c-.99952-.24447-1.95011-.65737-2.811-1.221l.621-1.233c.3744-.7399,1.2508-1.07278,2.022-.768.37389.15524.75654.28847,1.146.399.91807.26884,1.86939.4072,2.826.411c2.118,0,3.179-.557,3.183-1.671.01432-.51063-.31898-.96614-.81-1.107-.84397-.28199-1.7129-.4829-2.595-.6-1.03337-.14877-2.05419-.3744-3.054-.675-.77526-.24876-1.47221-.69547-2.022-1.296-.61143-.71083-.9214-1.63215-.864-2.568-.02956-1.38298.6493-2.68527,1.8-3.453c1.44674-.93234,3.1502-1.38576,4.869-1.296c1.05397.00022,2.10457.11896,3.132.354.90209.18897,1.76874.51902,2.568.978l-.675,1.296c-.363.73034-1.21602,1.07232-1.983.795-.9848-.3605-2.02631-.54137-3.075-.534-.81824-.04818-1.63519.11397-2.373.471-.48302.22293-.79719.70118-.81,1.233-.01041.54748.34149,1.03623.864,1.2.87464.31646,1.77934.54264,2.7.675c1.00825.15143,2.00395.37704,2.979.675.77042.2345,1.46702.66444,2.022,1.248.59601.69214.89656,1.59055.837,2.502.02092,1.37985-.67962,2.67062-1.848,3.405-1.50499.92728-3.25673,1.37412-5.022,1.281-1.22607-.00259-2.44614-.17112-3.627-.501Zm44.883-14.874v12.858c0,5.336-2.724,8.004-8.172,8.004-1.40084.00811-2.79608-.17765-4.146-.552-1.17835-.30549-2.28055-.85199-3.237-1.605l1.026-1.713c.30567-.49262.95204-.6455,1.446-.342.51805.29338,1.06493.53264,1.632.714.99571.32459,2.03673.48864,3.084.486c1.664,0,2.884-.378,3.66-1.134.84612-.94702,1.26781-2.19906,1.167-3.465v-.795c-.61114.66419-1.36796,1.17763-2.211,1.5-.91436.34924-1.88627.52327-2.865.513-1.35633.0185-2.69615-.29893-3.9-.924-1.14224-.59206-2.09694-1.49066-2.757-2.595-.68212-1.15978-1.02996-2.48573-1.005-3.831-.02691-1.34077.32116-2.66242,1.005-3.816.65985-1.09557,1.61266-1.98501,2.751-2.568c1.20751-.61258,2.54617-.9215,3.9-.9c1.02537-.01399,2.04386.16934,3,.54.88145.34534,1.65934.91145,2.259,1.644v-.936c0-.28643.11379-.56114.31633-.76367s.47724-.31633.76367-.31633l2.283-.003Zm-4.782,10.263c.86632-.80774,1.34014-1.95125,1.299-3.135.03647-1.17094-.43625-2.30022-1.296-3.096-1.9293-1.58787-4.7127-1.58787-6.642,0-.85642.7974-1.32577,1.92647-1.287,3.096-.04421,1.18189.4251,2.3251,1.287,3.135c1.92186,1.60535,4.71714,1.60535,6.639,0Zm-12.057-10.278l-5.892,13.743c-.36888.86087-1.21443,1.41985-2.151,1.422h-1.902l5.763-13.404.3-.675c.28294-.65223.92704-1.07338,1.638-1.071l2.244-.015Zm-10.785,13.263l-5.889-13.236h2.511c.71819-.00121,1.36666.42953,1.644,1.092l3.492,8.046-1.758,4.098Z" opacity="0.8" clip-rule="evenodd" fill="#fff" fill-rule="evenodd"/><g id="emcC0dT2tix106" transform="matrix(0.3 0 0 0.3 -18.12243 -25.905895)" opacity="0.8" mask="url(#emcC0dT2tix108)"><path id="emcC0dT2tix107" d="M129.5,243.58426c-8.76,2.18-20.08,1.79-37.33-19.63-2.35828-2.9281-4.38181-6.36293-5.93416-10.02849c3.00814.97918,6.21933,1.50849,9.55416,1.50849c17.03246,0,30.84-13.80754,30.84-30.84c0-5.42003-1.39819-10.5135-3.85355-14.93939c22.54068-3.14789,48.24701-1.18662,56.01355,6.19939c12.32,11.73-14.11,59.03-49.29,67.73Z" fill="#fff"/><mask id="emcC0dT2tix108" mask-type="alpha" x="-150%" y="-150%" height="400%" width="400%"><path id="emcC0dT2tix109" d="M78.37454,207.03926c0-31.45994,25.50332-56.96327,56.96327-56.96327s56.96327,25.50332,56.96327,56.96327-25.50332,56.96327-56.96327,56.96327-56.96327-25.50332-56.96327-56.96327Zm89.23546-4.715c-.16775-.93858-1.05962-1.56734-2-1.41h-.06c-4.15414.71597-8.30501-1.28258-10.33588-4.97651s-1.49439-8.26953,1.33588-11.39349c.33036-.3301.51598-.77798.51598-1.245s-.18561-.9149-.51598-1.245l-.11-.1c-2.70671-2.31865-5.78705-4.16144-9.11-5.45-.43613-.17299-.92328-.16468-1.35326.02308s-.76719.53944-.93674.97692v.06c-1.40364,3.98681-5.18789,6.63916-9.41438,6.59848s-7.95898-2.76539-9.28562-6.77848c-.13404-.44903-.44162-.82607-.85458-1.04757s-.8972-.26916-1.34542-.13243h-.11c-3.26392,1.21388-6.31249,2.94242-9.03,5.12-.37331.28196-.619.70095-.6828,1.16441s.05956.93325.3428,1.30559l.1.12c2.68294,3.2243,3.03751,7.79124.8844,11.39101s-6.34454,5.44763-10.4544,4.60899c-.45624-.10445-.9353-.02286-1.33126.22672s-.67619.6466-.77874,1.10328v.09c-.55386,3.43784-.55386,6.94217,0,10.38.06433.46505.31181.88512.68739,1.16681s.84815.40164,1.31261.33319h.11c4.15414-.71597,8.30501,1.28258,10.33588,4.97651s1.49439,8.26953-1.33588,11.39349c-.33036.3301-.51598.77798-.51598,1.245s.18561.9149.51598,1.245l.11.1c2.70914,2.30768,5.7893,4.14023,9.11,5.42.43613.17299.92328.16468,1.35326-.02308s.76719-.53944.93674-.97692v-.06c1.40815-3.97311,5.18194-6.61524,9.39704-6.57914s7.94308,2.7425,9.28296,6.73914c.13404.44903.44162.82607.85458,1.04757s.8972.26916,1.34542.13243h.11c3.30375-1.22537,6.38706-2.97809,9.13-5.19.37164-.28659.61343-.70974.67164-1.17542s-.07198-.93533-.36164-1.30458l-.1-.12c-2.83001-3.19588-3.28744-7.84789-1.13412-11.53378s6.43037-5.57199,10.60412-4.67622c.93041.23341,1.87421-.33019,2.11-1.26v-.09c.5347-3.37898.5347-6.82102,0-10.2Zm-41.67,4.69c0-5.197,4.213-9.41,9.41-9.41s9.41,4.213,9.41,9.41-4.213,9.41-9.41,9.41-9.41-4.213-9.41-9.41Z" fill="#fff" stroke-width="0"/></mask></g><path id="emcC0dT2tix110" d="M116.33,114.77l-3.64-2.18c-1.023263-.593162-1.652267-1.687247-1.65-2.87v-2c-.002267-1.182753.626737-2.276838,1.65-2.87l3.64-2.18c.762973-.435835,1.321342-1.157154,1.552062-2.005003s.114855-1.752643-.322062-2.514997v0l-1.74-3c-.935215-1.566004-2.961067-2.080293-4.53-1.15v0l-3.68,2.18c-1.024118.591275-2.285882.591275-3.31,0l-1.7-1c-1.023263-.593162-1.652267-1.687247-1.65-2.87v-4.38c0-.877867-.348731-1.719778-.969477-2.340523s-1.462656-.969477-2.340523-.969477h-3.47c-.877867,0-1.719778.348731-2.340523.969477s-.969477,1.462656-.969477,2.340523s0,.06,0,.09v4.35c.002267,1.182753-.626737,2.276838-1.65,2.87l-1.68,1c-1.024118.591275-2.285882.591275-3.31,0L80.56,94c-.767143-.448916-1.682599-.570435-2.540292-.337203s-1.585543.801616-2.019708,1.577203v0l-1.74,3c-.443418.7584-.567152,1.661967-.343945,2.511654s.775044,1.575787,1.533945,2.018346v0L79.1,105c1.023263.593162,1.652267,1.687247,1.65,2.87v2c.002267,1.182753-.626737,2.276838-1.65,2.87l-3.61,2.18c-1.578036.917936-2.114924,2.940216-1.2,4.52v0l1.74,3c.917936,1.578036,2.940216,2.114924,4.52,1.2v0l3.66-2.18c1.024118-.591275,2.285882-.591275,3.31,0l1.68,1c1.023263.593162,1.652267,1.687247,1.65,2.87v3.67c0,.877867.348731,1.719778.969477,2.340523s1.462656.969477,2.340523.969477h3.46c.877867,0,1.719778-.348731,2.340523-.969477s.969477-1.462656.969477-2.340523v0-3.77c-.002267-1.182753.626737-2.276838,1.65-2.87l1.7-1c1.024118-.591275,2.285882-.591275,3.31,0l3.66,2.18c1.5824.913239,3.605483.371662,4.52-1.21v0l1.74-3c.938839-1.568495.428452-3.601089-1.14-4.54Zm-20.49.91c-3.865993,0-7-3.134007-7-7s3.134007-7,7-7s7,3.134007,7,7v0c0,3.865993-3.134007,7-7,7v0Z" transform="matrix(0.3 0 0 0.3 -17.650844 -2.6395)" opacity="0.8" fill="#fff"/></g>
<script><![CDATA[
!function(t,e){"object"==typeof exports&&"undefined"!=typeof module?module.exports=e():"function"==typeof __SVGATOR_DEFINE__&&__SVGATOR_DEFINE__.amd?__SVGATOR_DEFINE__(e):((t="undefined"!=typeof globalThis?globalThis:t||self).__SVGATOR_PLAYER__=t.__SVGATOR_PLAYER__||{},t.__SVGATOR_PLAYER__["5c7f360c"]=e())}(this,(function(){"use strict";const t=n(Math.pow(10,-6)),e=n(Math.pow(10,-2));function n(t,e=6){return function(t,e,n){if(Number.isInteger(t))return t;const r=Math.pow(10,e);return Math[n]((+t+Number.EPSILON)*r)/r}(t,e,"round")}function r(e,n,r=t){return Math.abs(e-n)<r}n(Math.pow(10,-4));const i=Math.PI/180;function s(t){return t*i}function o(t){return t/i}function u(t){return"number"!=typeof t&&(t=Number(t)),isNaN(t)||!isFinite(t)?0:t}let l={iD:!1};function a(t){return`${t}`.replace(/['"]/g,"")}function c(t,e="px"){return t.endsWith(e)?t:`${t}${e}`}function f(t=""){return l.iD?t:void 0}function h(t){const e=["^","\\s*","(matrix\\()","(?<a>-?[0-9]*\\.?[0-9]+)","\\s*",",?","\\s*","(?<b>-?[0-9]*\\.?[0-9]+)","\\s*",",?","\\s*","(?<c>-?[0-9]*\\.?[0-9]+)","\\s*",",?","\\s*","(?<d>-?[0-9]*\\.?[0-9]+)","\\s*",",?","\\s*","(?<e>-?[0-9]*\\.?[0-9]+)","\\s*",",?","\\s*","(?<f>-?[0-9]*\\.?[0-9]+)","\\)"].join(""),n=t.match(new RegExp(e,"i"));if(n)return[u(n.groups.a),u(n.groups.b),u(n.groups.c),u(n.groups.d),u(n.groups.e),u(n.groups.f)]}function d(t,e="inline"){return t&&t!==e?(t=a(t))===e?f(e):t:f(e)}function g(t,e="1px"){if(!t||t===e)return f(e);if(t.endsWith("px")||t.endsWith("%"))return t;const r=c(t=`${n(u(t),2)}`);return r===e?f(e):r}function p(t,e="none"){if(!t||t===e)return f(e);if((t=a(t))===e)return f(e);const n=t.match(/url\(#.+?\)/);return n?n[0]:function(t){const e=["^","\\s*","url\\(","#","(?<maskId>[a-zA-Z0-9\\-_]+)","\\)"].join(""),n=t.match(new RegExp(e,"i"));if(n)return`url(#${n.groups.maskId})`}(t)}function y(t,e="rgb(0, 0, 0)"){if(!t||t===e)return f(e);if((t=a(t))===e)return f(e);if(t.startsWith("rgb"))return t;const n=function(t){if("string"!=typeof t||"#"!==t[0])return t;const e=t.slice(1),n=e.length;if(3!==n&&6!==n)return t;for(let r=0;r<n;r++){const n=e.charCodeAt(r);if(!(n>=48&&n<=57||n>=65&&n<=70||n>=97&&n<=102))return t}if(3===n)return`rgb(${parseInt(e[0]+e[0],16)}, ${parseInt(e[1]+e[1],16)}, ${parseInt(e[2]+e[2],16)})`;return`rgb(${parseInt(e.slice(0,2),16)}, ${parseInt(e.slice(2,4),16)}, ${parseInt(e.slice(4,6),16)})`}(t);return n===e?f(e):n}function m(t,e="1"){return t&&t!==e?(t=`${n(u(t),3)}`)===e?f(e):t:f(e)}let v={};const b={fill:"none",stroke:"none",opacity:"0.01",transform:"matrix(0.001 0 0 0.001 -10000 -10000)"};function w({element:t,tagType:e="path",property:n="d",attributeValue:r}){return v[r]||(v[r]=function({element:t,tagType:e="path",property:n="d",attributeValue:r}){const i=t.ownerSVGElement,s=document.createElementNS(i.namespaceURI,e);s.setAttributeNS(null,n,r);for(const t in b)s.setAttributeNS(null,t,b[t]);i.appendChild(s);const o=getComputedStyle(s)[n];return s.remove(),o}({element:t,tagType:e,property:n,attributeValue:r})),v[r]}const x=()=>{v={}};"object"==typeof window&&(window.removeEventListener("resize",x),window.addEventListener("resize",x));const A={include:(t,e)=>["path"].includes(e),formatter:t=>function(t,e=""){return t&&t!==e?(t=a(t))===e?f(e):t.startsWith("path(")?t:`path('${t}')`:f(e)}(t)},_={include:(t,e)=>["rect","mask"].includes(e),formatter:(t,e,n)=>g(t,function(t,e){var n;return(null===(n={mask:{x:"-150%",y:"-150%",width:"400%",height:"400%"}}[e])||void 0===n?void 0:n[t])||(["x","y"].includes(t)?"0px":"100%")}(e,n))},S=Object.freeze({d:A,display:t=>d(t),height:_,fill:t=>y(t),"fill-opacity":t=>m(t),filter:t=>d(t,"none"),mask:t=>p(t),opacity:t=>m(t),stroke:t=>y(t,"none"),"stroke-opacity":t=>m(t),"stroke-width":t=>g(t),transform:t=>function(t,e="none"){if(!t||t===e)return f(e);const n=h(t);return n?`matrix(${n.join(", ")})`:t}(t),"transform-origin":t=>function(t,e="0px 0px"){if(!t||t===e)return f(e);const n=["^","\\s*","(?<x>[0-9]+)","(px)?","\\s*",",","\\s*","(?<y>[0-9]+)","(px)?"].join(""),r=t.match(new RegExp(n,"i"));if(!r)return t;let i=`${u(r.groups.x)}`;i=c(i);let s=`${u(r.groups.y)}`;s=c(s);const o=`${i} ${s}`;return o===e?f(e):o}(t),visibility:t=>d(t,"visible"),width:_,x:_,y:_}),k=Object.keys(S),E=e;function I(t,e,n,i,s=window){var o,u;const l=t.getAttribute(e),a="transform"===e?"none":"",c=(s.safari||function(t){var e,n;const r=null==t?void 0:t.userAgent;return(null==t||null===(e=t.vendor)||void 0===e||null===(n=e.indexOf)||void 0===n?void 0:n.call(e,"Apple"))>-1&&r&&-1===r.indexOf("CriOS")&&-1===r.indexOf("FxiOS")}(null==s?void 0:s.navigator)||s.webkit)&&!s.chrome&&(null===(o=i.getPropertyValue)||void 0===o?void 0:o.call(i,e))===a||"mask"===n?l:null===(u=i.getPropertyValue)||void 0===u?void 0:u.call(i,e);if(l&&c){if(l===c)return l;switch(e){case"transform":return function(t,e){const n=h(t),i=h(e);if((null==n?void 0:n.length)===(null==i?void 0:i.length)){for(let t=0,e=n.length;t<e;t++)if(n[t]!==i[t]&&(s=i[t],!r(((o=n[t])-s)/(o||1)*100,0,E)))return;var s,o;return t}}(l,c);case"d":return function(t,e,n){return w({element:t,attributeValue:e})===n?e:void 0}(t,l,c);default:return c}}}function M(t,e,n,r){var i,s,o,u;const l="transform"===e||["mask","path"].includes(n)&&["x","y","width","height","d"].includes(e);return r&&l?I(t,e,n,r):(null===(i=r.getPropertyValue)||void 0===i?void 0:i.call(r,e))??(null===(s=t.attrs)||void 0===s||null===(o=s.style)||void 0===o?void 0:o[e])??(null===(u=t.attrs)||void 0===u?void 0:u[e])}function N(t,e,n=!1){l.iD=n;const r="undefined"!=typeof window&&getComputedStyle(t),i={};for(let l=0,a=k.length;l<a;l++){var s,o,u;const a=k[l],c=t.type||t.nodeName;if(!1===(null===(s=(o=S[a]).include)||void 0===s?void 0:s.call(o,a,c)))continue;const f=S[a].formatter||S[a];if(null!=e&&null!==(u=e[t.id])&&void 0!==u&&u[a])continue;const h=M(t,a,c,r);if(null==h&&!n)continue;const d=f.call(this,h,a,c);d&&(i[a]=d)}return i}function O(t){var e,n;if(null==t||null===(e=t.wD)||void 0===e||!e.length)return;this.h=t.wD.shift();const r=null===(n=t.rootId)||void 0===n?void 0:n.slice(0,-1);this.wIs=t.wD.map((t=>`${r}${t}`))}function j(t){const e=new O(t),n=t.svg,r=e.wIs,i=t.originalAnimations[0].elements,s=e.h;function o(t,e,s){var u;if(e[t])return;const l=n.querySelector("#"+t),a=null==l||null===(u=l.parentElement)||void 0===u?void 0:u.id;if(l&&a){if(r.includes(a))return e[a]||o(a,e,s),e[a].children??=[],e[t]=N(l,i),void e[a].children.push(e[t]);e[t]=N(l,i),s.push(e[t])}}async function u(){const t=function(){let t=[],e={};for(let n=0,i=r.length;n<i;n++)o(r[n],e,t);return t}();return await async function(t){var e,n;const r=JSON.stringify(t),i=(new TextEncoder).encode(r),o=await(null===(e=window.crypto)||void 0===e||null===(n=e.subtle)||void 0===n?void 0:n.digest("SHA-256",i));return o&&Array.from(new Uint8Array(o)).map((t=>t.toString(16).padStart(2,"0"))).join("")||s}(t)}this.vH=async function(){await u()!==s&&requestAnimationFrame((()=>t.stop()))}}function B(t){let e=0,n=0;const r=new j(t);this.cF=function(i,s){return t.wD?(e++,function(t){return!(t-n<300)&&(t-n>=500||e>=3)}(i)?(e=0,n=i,window.requestAnimationFrame((()=>r.vH())),s()):s()):s()}}function T(t){return t}function F(t,e,n){const r=1-n;return 3*n*r*(t*r+e*n)+n*n*n}function C(t=0,e=0,n=1,i=1){return t<0||t>1||n<0||n>1?null:r(t,e)&&r(n,i)?T:s=>{if(s<=0)return t>0?s*e/t:0===e&&n>0?s*i/n:0;if(s>=1)return n<1?1+(s-1)*(i-1)/(n-1):1===n&&t<1?1+(s-1)*(e-1)/(t-1):1;let o,u=0,l=1;for(;u<l;){o=(u+l)/2;const e=F(t,n,o);if(r(s,e))break;e<s?u=o:l=o}return F(e,i,o)}}function V(){return 1}function R(t){return 1===t?1:0}function $(t=1,e=0){if(1===t){if(0===e)return R;if(1===e)return V}const n=1/t;return t=>t>=1?1:(t+=e*n)-t%n}Number.isInteger||(Number.isInteger=function(t){return"number"==typeof t&&isFinite(t)&&Math.floor(t)===t}),Number.EPSILON||(Number.EPSILON=2220446049250313e-31);const D=Math.sin,L=Math.cos,P=Math.acos,q=Math.asin,z=Math.tan,G=Math.atan2,W=Math.sqrt;function Y(t,e){return{a:t[0]*e[0]+t[2]*e[1],b:t[1]*e[0]+t[3]*e[1],c:t[0]*e[2]+t[2]*e[3],d:t[1]*e[2]+t[3]*e[3],tx:t[0]*e[4]+t[2]*e[5]+t[4],ty:t[1]*e[4]+t[3]*e[5]+t[5]}}function U(t,e,n){return t>=.5?n:e}function H(t,e,n){return 0===t||e===n?e:t*(n-e)+e}function J(t,e,n){const r=H(t,e,n);return r<=0?0:r}function Q(t,e,n){const r=H(t,e,n);return r<=0?0:r>=1?1:r}function X(t,e,n){return 0===t?e:1===t?n:{x:H(t,e.x,n.x),y:H(t,e.y,n.y)}}function Z(t,e,n){return 0===t?e:1===t?n:{x:J(t,e.x,n.x),y:J(t,e.y,n.y)}}function K(t,e,n){const r=function(t,e,n){return Math.round(H(t,e,n))}(t,e,n);return r<=0?0:r>=255?255:r}function tt(t,e,n){return 0===t?e:1===t?n:{r:K(t,e.r,n.r),g:K(t,e.g,n.g),b:K(t,e.b,n.b),a:H(t,null==e.a?1:e.a,null==n.a?1:n.a)}}function et(t,e,n){let r=e.length;if(r!==n.length)return U(t,e,n);let i=new Array(r);for(let s=0;s<r;s++)i[s]=H(t,e[s],n[s]);return i}function nt(t,e){const n=[];for(let r=0;r<t;r++)n.push(e);return n}function rt(t,e){if(--e<=0)return t;const n=(t=Object.assign([],t)).length;do{for(let e=0;e<n;e++)t.push(t[e])}while(--e>0);return t}class it{constructor(t){this.list=t,this.length=t.length}setAttribute(t,e){const n=this.list;for(let r=0;r<this.length;r++)n[r].setAttribute(t,e)}removeAttribute(t){const e=this.list;for(let n=0;n<this.length;n++)e[n].removeAttribute(t)}style(t,e){const n=this.list;for(let r=0;r<this.length;r++)n[r].style[t]=e}}const st=/-./g,ot=(t,e)=>e.toUpperCase();let ut;function lt(t){return"function"==typeof t?t:U}function at(t){return t?"function"==typeof t?t:Array.isArray(t)?function(t,e=T){if(!Array.isArray(t))return e;switch(t.length){case 1:return $(t[0])||e;case 2:return $(t[0],t[1])||e;case 4:return C(t[0],t[1],t[2],t[3])||e}return e}(t,null):function(t,e,n=T){switch(t){case"linear":return T;case"steps":return $(e.steps||1,e.jump||0)||n;case"bezier":case"cubic-bezier":return C(e.x1||0,e.y1||0,e.x2||0,e.y2||0)||n}return n}(t.type,t.value,null):null}function ct(t,e,n,r=!1){const i=e.length-1;if(t<=e[0].t)return r?[0,0,e[0].v]:e[0].v;if(t>=e[i].t)return r?[i,1,e[i].v]:e[i].v;let s,o=e[0],u=null;for(s=1;s<=i;s++){if(!(t>e[s].t)){u=e[s];break}o=e[s]}return null==u?r?[i,1,e[i].v]:e[i].v:o.t===u.t?r?[s,1,u.v]:u.v:(t=(t-o.t)/(u.t-o.t),o.e&&(t=o.e(t)),r?[s,t,n(t,o.v,u.v)]:n(t,o.v,u.v))}function ft(t,e,n=null){return t&&t.length?"function"!=typeof e?null:("function"!=typeof n&&(n=null),r=>{let i=ct(r,t,e);return null!=i&&n&&(i=n(i)),i}):null}function ht(t,e){return t.t-e.t}function dt(t,e,n,r,i){const s="@"===n[0],o="#"===n[0];let u=ut[n],l=U;var a;switch(s?(a=n.substr(1),n=a.replace(st,ot)):o&&(n=n.substr(1)),typeof u){case"function":if(l=u(r,i,ct,at,n,s,e,t),o)return l;break;case"string":l=ft(r,lt(u));break;case"object":if(l=ft(r,lt(u.i),u.f),l&&"function"==typeof u.u)return u.u(e,l,n,s,t)}return l?function(t,e,n,r=!1){if(r)return t instanceof it?r=>t.style(e,n(r)):r=>t.style[e]=n(r);if(Array.isArray(e)){const r=e.length;return i=>{const s=n(i);if(null==s)for(let n=0;n<r;n++)t[n].removeAttribute(e);else for(let n=0;n<r;n++)t[n].setAttribute(e,s)}}return r=>{const i=n(r);null==i?t.removeAttribute(e):t.setAttribute(e,i)}}(e,n,l,s):null}function gt(t,e,n,r){if(!r||"object"!=typeof r)return null;let i=null,s=null;return Array.isArray(r)?s=function(t){if(!t||!t.length)return null;for(let e=0;e<t.length;e++)t[e].e&&(t[e].e=at(t[e].e));return t.sort(ht)}(r):(s=r.keys,i=r.data||null),s?dt(t,e,n,s,i):null}function pt(t,e,n){if(!n)return null;const r=[];for(const i in n)if(n.hasOwnProperty(i)){const s=gt(t,e,i,n[i]);s&&r.push(s)}return r.length?r:null}function yt(t,e){if(!e.settings.duration||e.settings.duration<0)return null;const n=function(t,e){if(!e)return null;let n=[];if(Array.isArray(e)){const r=e.length;for(let i=0;i<r;i++){const r=e[i];if(2!==r.length)continue;let s=null;if("string"==typeof r[0])s=t.getElementById(r[0]);else if(Array.isArray(r[0])){s=[];for(let e=0;e<r[0].length;e++)if("string"==typeof r[0][e]){const n=t.getElementById(r[0][e]);n&&s.push(n)}s=s.length?1===s.length?s[0]:new it(s):null}if(!s)continue;const o=pt(t,s,r[1]);o&&(n=n.concat(o))}}else for(const r in e){if(!e.hasOwnProperty(r))continue;const i=t.getElementById(r);if(!i)continue;const s=pt(t,i,e[r]);s&&(n=n.concat(s))}return n.length?n:null}(t,e.elements);return n?function(t,e){const n=e.duration,r=t.length;let i=null;return(s,o)=>{const u=e.iterations||1/0,l=(e.alternate&&u%2==0)^e.direction>0?n:0;let a=s%n,c=1+(s-a)/n;o*=e.direction,e.alternate&&c%2==0&&(o=-o);let f=!1;if(c>u)a=l,f=!0,-1===e.fill&&(a=e.direction>0?0:n);else if(o<0&&(a=n-a),a===i)return!1;i=a;for(let e=0;e<r;e++)t[e](a);return f}}(n,e.settings):null}function mt(t,e=document,n=0){const r=function(t,e){const n=e.querySelectorAll("svg");for(let e=0;e<n.length;e++)if(n[e].id===t.root&&!n[e].svgatorAnimation)return n[e].svgatorAnimation=!0,n[e];return null}(t,e);if(r)return r;if(n>=20)return null;const i=function(t){const e=t=>t.shadowRoot;return document?Array.from(t.querySelectorAll(":not("+["a","area","audio","br","canvas","circle","datalist","embed","g","head","hr","iframe","img","input","link","object","path","polygon","rect","script","source","style","svg","title","track","video"].join()+")")).filter(e).map(e):[]}(e);for(let e=0;e<i.length;e++){const r=mt(t,i[e],n+1);if(r)return r}return null}function vt(t,e=null,n=Number,r="undefined"!=typeof BigInt&&BigInt){const i="0x"+(t.replace(/[^0-9a-fA-F]+/g,"")||27);return e&&r&&n.isSafeInteger&&!n.isSafeInteger(+i)?n(r(i))%e+e:+i}function bt(t,e=27){return!t||t%e?t%e:[0,1].includes(e)?e:bt(t/e,e)}function wt(t,e,n){if(!t||!t.length)return;const r=vt(n),i=bt(r)+5;let s=function(t,e,n){let r="";for(;t&&n&&e<=t.length;)r+=t.substring(0,e),t=t.substring(e+1),e=n;return r+t}(t,bt(r,5),i);return s=s.replace(/\x7c$/g,"==").replace(/\x2f$/g,"="),s=atob(s),s=s.replace(/[\x41-\x5A]/g,""),s=function(t,e,n){const r=+("0x"+t.substring(0,4));t=t.substring(4);const i=vt(e,r)%r+n%27,s=[];for(let e=0;e<t.length;e+=2){if("|"===t[e]){const n=+("0x"+t.substring(e+1,e+1+4))-i;e+=3,s.push(n);continue}const n=+("0x"+t[e]+t[e+1])-i;s.push(n)}return String.fromCharCode(...s)}(s,e,r),s=JSON.parse(s),s}const xt=[{key:"alternate",def:!1},{key:"fill",def:1},{key:"iterations",def:0},{key:"direction",def:1},{key:"speed",def:1},{key:"fps",def:100}];function At(t){return n(t)+""}function _t(t,e=" "){return t&&t.length?t.map(At).join(e):""}function St(t){return At(t.x)+","+At(t.y)}function kt(t){return t?null==t.a||t.a>=1?function(t){if(!t)return"transparent";const e=t=>parseInt(t).toString(16).padStart(2,"0");return function(t){const e=[];let n="#"===t[0]?e.push("#"):0;for(;n<t.length;n+=2){if(t[n]!==t[n+1])return t;e.push(t[n])}return e.join("")}("#"+e(t.r)+e(t.g)+e(t.b)+(null==t.a||t.a>=1?"":e(255*t.a)))}(t):"rgba("+t.r+","+t.g+","+t.b+","+t.a+")":"transparent"}function Et(t){return t?"url(#"+t+")":"none"}!function(){for(var t=0,e=["ms","moz","webkit","o"],n=0;n<e.length&&!window.requestAnimationFrame;++n)window.requestAnimationFrame=window[e[n]+"RequestAnimationFrame"],window.cancelAnimationFrame=window[e[n]+"CancelAnimationFrame"]||window[e[n]+"CancelRequestAnimationFrame"];window.requestAnimationFrame||(window.requestAnimationFrame=function(e){var n=Date.now(),r=Math.max(0,16-(n-t)),i=window.setTimeout((function(){e(n+r)}),r);return t=n+r,i},window.cancelAnimationFrame=window.clearTimeout)}();var It={f:null,i:Z,u:(t,e)=>n=>{const r=e(n);t.setAttribute("rx",At(r.x)),t.setAttribute("ry",At(r.y))}},Mt={f:null,i:function(t,e,n){return 0===t?e:1===t?n:{width:J(t,e.width,n.width),height:J(t,e.height,n.height)}},u:(t,e)=>n=>{const r=e(n);t.setAttribute("width",At(r.width)),t.setAttribute("height",At(r.height))}};Object.freeze({M:2,L:2,Z:0,H:1,V:1,C:6,Q:4,T:2,S:4,A:7});let Nt={},Ot=null;function jt(t){let e=function(){if(Ot)return Ot;if("object"!=typeof document||!document.createElementNS)return{};let t=document.createElementNS("http://www.w3.org/2000/svg","svg");return t&&t.style?(t.style.position="absolute",t.style.opacity="0.01",t.style.zIndex="-9999",t.style.left="-9999px",t.style.width="1px",t.style.height="1px",Ot={svg:t},Ot):{}}().svg;if(!e)return function(t){return null};let n=document.createElementNS(e.namespaceURI,"path");n.setAttributeNS(null,"d",t),n.setAttributeNS(null,"fill","none"),n.setAttributeNS(null,"stroke","none"),e.appendChild(n);let r=n.getTotalLength();return function(t){let e=n.getPointAtLength(r*t);return{x:e.x,y:e.y}}}function Bt(t,e,n,r,i=1){let s=function(t){return Nt[t]?Nt[t]:Nt[t]=jt(t)}(function(t,e,n,r){if(!t||!r)return!1;let i=["M",t.x,t.y];if(e&&n&&(i.push("C"),i.push(e.x),i.push(e.y),i.push(n.x),i.push(n.y)),e?!n:n){let t=e||n;i.push("Q"),i.push(t.x),i.push(t.y)}return e||n||i.push("L"),i.push(r.x),i.push(r.y),i.join(" ")}(t,e,n,r));try{return s(i)}catch(t){return null}}function Tt(t,e,n){return t+(e-t)*n}function Ft(t,e,n,r=!1){const i={x:Tt(t.x,e.x,n),y:Tt(t.y,e.y,n)};return r&&(i.a=function(t,e){return Math.atan2(e.y-t.y,e.x-t.x)}(t,e)),i}function Ct(t,e,n,r){const i=1-r;return i*i*t+2*i*r*e+r*r*n}function Vt(t,e,n,r){return 2*(1-r)*(e-t)+2*r*(n-e)}function Rt(t,e,n,r,i=!1){let s=Bt(t,e,null,n,r);return s||(s={x:Ct(t.x,e.x,n.x,r),y:Ct(t.y,e.y,n.y,r)}),i&&(s.a=function(t,e,n,r){return Math.atan2(Vt(t.y,e.y,n.y,r),Vt(t.x,e.x,n.x,r))}(t,e,n,r)),s}function $t(t,e,n,r,i){const s=i*i;return i*s*(r-t+3*(e-n))+3*s*(t+n-2*e)+3*i*(e-t)+t}function Dt(t,e,n,r,i){const s=1-i;return 3*(s*s*(e-t)+2*s*i*(n-e)+i*i*(r-n))}function Lt(t,e,n,r,i,s=!1){let o=Bt(t,e,n,r,i);return o||(o={x:$t(t.x,e.x,n.x,r.x,i),y:$t(t.y,e.y,n.y,r.y,i)}),s&&(o.a=function(t,e,n,r,i){return Math.atan2(Dt(t.y,e.y,n.y,r.y,i),Dt(t.x,e.x,n.x,r.x,i))}(t,e,n,r,i)),o}function Pt(t,e,n,r=!1){if(zt(e)){if(Gt(n))return Rt(e,n.start,n,t,r)}else if(zt(n)){if(Wt(e))return Rt(e,e.end,n,t,r)}else{if(Wt(e))return Gt(n)?Lt(e,e.end,n.start,n,t,r):Rt(e,e.end,n,t,r);if(Gt(n))return Rt(e,n.start,n,t,r)}return Ft(e,n,t,r)}function qt(t,e,n){const r=Pt(t,e,n,!0);return r.a=o(function(t,e=!1){return e?t+Math.PI:t}(r.a)),r}function zt(t){return!t.type||"corner"===t.type}function Gt(t){return null!=t.start&&!zt(t)}function Wt(t){return null!=t.end&&!zt(t)}const Yt=new class{constructor(t=1,e=0,n=0,r=1,i=0,s=0){this.m=[t,e,n,r,i,s],this.i=null,this.w=null,this.s=null}get determinant(){const t=this.m;return t[0]*t[3]-t[1]*t[2]}get isIdentity(){if(null===this.i){const t=this.m;this.i=1===t[0]&&0===t[1]&&0===t[2]&&1===t[3]&&0===t[4]&&0===t[5]}return this.i}point(t,e){const n=this.m;return{x:n[0]*t+n[2]*e+n[4],y:n[1]*t+n[3]*e+n[5]}}translateSelf(t=0,e=0){if(!t&&!e)return this;const n=this.m;return n[4]+=n[0]*t+n[2]*e,n[5]+=n[1]*t+n[3]*e,this.w=this.s=this.i=null,this}rotateSelf(t=0){if(t%=360){t=s(t);const e=D(t),n=L(t),r=this.m,i=r[0],o=r[1];r[0]=i*n+r[2]*e,r[1]=o*n+r[3]*e,r[2]=r[2]*n-i*e,r[3]=r[3]*n-o*e,this.w=this.s=this.i=null}return this}scaleSelf(t=1,e=1){if(1!==t||1!==e){const n=this.m;n[0]*=t,n[1]*=t,n[2]*=e,n[3]*=e,this.w=this.s=this.i=null}return this}skewSelf(t,e){if(e%=360,(t%=360)||e){const n=this.m,r=n[0],i=n[1],o=n[2],u=n[3];t&&(t=z(s(t)),n[2]+=r*t,n[3]+=i*t),e&&(e=z(s(e)),n[0]+=o*e,n[1]+=u*e),this.w=this.s=this.i=null}return this}resetSelf(t=1,e=0,n=0,r=1,i=0,s=0){const o=this.m;return o[0]=t,o[1]=e,o[2]=n,o[3]=r,o[4]=i,o[5]=s,this.w=this.s=this.i=null,this}recomposeSelf(t=null,e=null,n=null,r=null,i=null){return this.isIdentity||this.resetSelf(),t&&(t.x||t.y)&&this.translateSelf(t.x,t.y),e&&this.rotateSelf(e),n&&(n.x&&this.skewSelf(n.x,0),n.y&&this.skewSelf(0,n.y)),!r||1===r.x&&1===r.y||this.scaleSelf(r.x,r.y),i&&(i.x||i.y)&&this.translateSelf(i.x,i.y),this}decompose(t=0,e=0){const r=this.m,i=r[0]*r[0]+r[1]*r[1],s=[[r[0],r[1]],[r[2],r[3]]];let u=W(i);if(0===u)return{origin:{x:n(r[4]),y:n(r[5])},translate:{x:n(t),y:n(e)},scale:{x:0,y:0},skew:{x:0,y:0},rotate:0};s[0][0]/=u,s[0][1]/=u;const l=r[0]*r[3]-r[1]*r[2]<0;l&&(u=-u);let a=s[0][0]*s[1][0]+s[0][1]*s[1][1];s[1][0]-=s[0][0]*a,s[1][1]-=s[0][1]*a;let c,f=W(s[1][0]*s[1][0]+s[1][1]*s[1][1]);return 0===f?{origin:{x:n(r[4]),y:n(r[5])},translate:{x:n(t),y:n(e)},scale:{x:n(u),y:0},skew:{x:0,y:0},rotate:0}:(s[1][0]/=f,s[1][1]/=f,a/=f,s[1][1]<0?(c=o(P(s[1][1])),s[0][1]<0&&(c=360-c)):c=o(q(s[0][1])),l&&(c=-c),a=o(G(a,W(s[0][0]*s[0][0]+s[0][1]*s[0][1]))),l&&(a=-a),{origin:{x:n(r[4]),y:n(r[5])},translate:{x:n(t),y:n(e)},scale:{x:n(u),y:n(f)},skew:{x:n(a),y:0},rotate:n(c)})}multiply(t){return this.clone().multiplySelf(t)}preMultiply(t){return t.multiply(this)}multiplySelf(t){const{a:e,b:n,c:r,d:i,tx:s,ty:o}=Y(this.m,t.m);return this.resetSelf(e,n,r,i,s,o),this}preMultiplySelf(t){const{a:e,b:n,c:r,d:i,tx:s,ty:o}=Y(t.m,this.m);return this.resetSelf(e,n,r,i,s,o),this}clone(){const t=this.m;return new this.constructor(t[0],t[1],t[2],t[3],t[4],t[5])}static create(t){return t?Array.isArray(t)?new this(...t):t instanceof this?t.clone():(new this).recomposeSelf(t.origin,t.rotate,t.skew,t.scale,t.translate):new this}toString(t=" ",e=!1){if(null===this.s){let r=this.m.map((t=>n(t)));e||1!==r[0]||0!==r[1]||0!==r[2]||1!==r[3]?this.s="matrix("+r.join(t)+")":this.s="translate("+r[4]+t+r[5]+")"}return this.s}};var Ut={f:function(t){return t?t.join(" "):""},i:function(t,e,n){if(0===t)return e;if(1===t)return n;let r=e.length;if(r!==n.length)return U(t,e,n);let i,s=new Array(r);for(let o=0;o<r;o++){if(i=typeof e[o],i!==typeof n[o])return U(t,e,n);if("number"===i)s[o]=H(t,e[o],n[o]);else{if(e[o]!==n[o])return U(t,e,n);s[o]=e[o]}}return s}},Ht={f:null,i:et,u:(t,e)=>n=>{const r=e(n);t.setAttribute("x1",At(r[0])),t.setAttribute("y1",At(r[1])),t.setAttribute("x2",At(r[2])),t.setAttribute("y2",At(r[3]))}},Jt={f:At,i:H},Qt={f:At,i:Q},Xt={f:function(t,e=" "){return t&&t.length>0&&(t=t.map((t=>n(t,4)))),_t(t,e)},i:function(t,e,r){let i=e.length,s=r.length;if(i!==s)if(0===i)i=s,e=nt(i,0);else if(0===s)s=i,r=nt(i,0);else{const t=function(t,e){const n=t*e/function(t,e){let n;for(;e;)n=e,e=t%e,t=n;return t||1}(t,e);return n<0?-n:n}(i,s);e=rt(e,Math.floor(t/i)),r=rt(r,Math.floor(t/s)),i=s=t}let o=[];for(let s=0;s<i;s++)o.push(n(J(t,e[s],r[s])));return o}};function Zt(t,e,r){return t.map((t=>function(t,e,r){let i=t.v;if(!i||"g"!==i.t||i.s||!i.v||!i.r)return t;const s=r.getElementById(i.r),o=s&&s.querySelectorAll("stop")||[];return i.s=i.v.map(((t,e)=>{let r=o[e]&&o[e].getAttribute("offset");return r=n(parseInt(r)/100),{c:t,o:r}})),delete i.v,t}(t,0,r)))}const Kt={gt:"gradientTransform",c:{x:"cx",y:"cy"},rd:"r",f:{x:"x1",y:"y1"},to:{x:"x2",y:"y2"}};function te(t,e,n,r,i,s,o,u){return Zt(t,0,u),e=function(t,e,n){let r,i,s;const o=t.length-1,u={};for(let l=0;l<=o;l++)r=t[l],r.e&&(r.e=e(r.e)),r.v&&(i=r.v,"g"===i.t&&i.r&&(s=n.getElementById(i.r),s&&(u[i.r]={e:s,s:s.querySelectorAll("stop")})));return u}(t,r,u),r=>{const i=n(r,t,ee);if(!i)return"none";if("c"===i.t)return kt(i.v);if("g"===i.t){if(!e[i.r])return Et(i.r);const t=e[i.r];return function(t,e){let n=t.s;for(let r=n.length;r<e.length;r++){const e=n[n.length-1].cloneNode();e.id=ie(e.id),t.e.appendChild(e),n=t.s=t.e.querySelectorAll("stop")}for(let t=0,r=n.length,i=e.length-1;t<r;t++)n[t].setAttribute("stop-color",kt(e[Math.min(t,i)].c)),n[t].setAttribute("offset",e[Math.min(t,i)].o)}(t,i.s),Object.keys(Kt).forEach((e=>{if(void 0===i[e])return;if("object"==typeof Kt[e])return void Object.keys(Kt[e]).forEach((n=>{if(void 0===i[e][n])return;const r=i[e][n],s=Kt[e][n];t.e.setAttribute(s,r)}));const n="gt"===e?(r=i[e],Array.isArray(r)?"matrix("+r.join(" ")+")":""):i[e];var r;const s=Kt[e];t.e.setAttribute(s,n)})),Et(i.r)}return"none"}}function ee(t,e,n){if(0===t)return e;if(1===t)return n;if(e&&n){const r=e.t;if(r===n.t)switch(e.t){case"c":return{t:r,v:tt(t,e.v,n.v)};case"g":if(e.r===n.r){const i={t:r,s:ne(t,e.s,n.s),r:e.r};return e.gt&&n.gt&&(i.gt=et(t,e.gt,n.gt)),e.c?(i.c=X(t,e.c,n.c),i.rd=J(t,e.rd,n.rd)):e.f&&(i.f=X(t,e.f,n.f),i.to=X(t,e.to,n.to)),i}}if("c"===e.t&&"g"===n.t||"c"===n.t&&"g"===e.t){const r="c"===e.t?e:n,i="g"===e.t?{...e}:{...n},s=i.s.map((t=>({c:r.v,o:t.o})));return i.s="c"===e.t?ne(t,s,i.s):ne(t,i.s,s),i}}return U(t,e,n)}function ne(t,e,n){if(e.length===n.length)return e.map(((e,r)=>re(t,e,n[r])));const r=Math.max(e.length,n.length),i=[];for(let s=0;s<r;s++){const r=re(t,e[Math.min(s,e.length-1)],n[Math.min(s,n.length-1)]);i.push(r)}return i}function re(t,e,n){return{o:Q(t,e.o,n.o||0),c:tt(t,e.c,n.c||{})}}function ie(t){return t.replace(/-fill-([0-9]+)$/,((t,e)=>"-fill-"+(+e+1)))}function se(t,e,n){return 0===t?e:1===t?n:{blur:Z(t,e.blur,n.blur),offset:X(t,e.offset,n.offset),color:tt(t,e.color,n.color)}}const oe={blur:Z,brightness:J,contrast:J,"drop-shadow":se,"inner-shadow":se,grayscale:J,"hue-rotate":H,invert:J,opacity:J,saturate:J,sepia:J};function ue(t,e,n){if(0===t)return e;if(1===t)return n;const r=e.length;if(r!==n.length)return U(t,e,n);const i=[];let s;for(let o=0;o<r;o++){if(e[o].type!==n[o].type)return e;if(s=oe[e[o].type],!s)return U(t,e,n);i.push({type:e.type,value:s(t,e[o].value,n[o].value)})}return i}const le={blur:t=>t?e=>{t.setAttribute("stdDeviation",St(e))}:null,brightness:(t,e,n)=>(t=ce(n,e))?e=>{e=At(e),t.map((t=>t.setAttribute("slope",e)))}:null,contrast:(t,e,n)=>(t=ce(n,e))?e=>{const n=At((1-e)/2);e=At(e),t.map((t=>{t.setAttribute("slope",e),t.setAttribute("intercept",n)}))}:null,"drop-shadow"(t,e,n){const r=n.getElementById(e+"-blur");if(!r)return null;const i=n.getElementById(e+"-offset");if(!i)return null;const s=n.getElementById(e+"-flood");return s?t=>{r.setAttribute("stdDeviation",St(t.blur)),i.setAttribute("dx",At(t.offset.x)),i.setAttribute("dy",At(t.offset.y)),s.setAttribute("flood-color",kt(t.color))}:null},"inner-shadow"(t,e,n){const r=n.getElementById(e+"-blur");if(!r)return null;const i=n.getElementById(e+"-offset");if(!i)return null;const s=n.getElementById(e+"-color-matrix");return s?t=>{r.setAttribute("stdDeviation",St(t.blur)),i.setAttribute("dx",At(t.offset.x)),i.setAttribute("dy",At(t.offset.y));const e=[0,0,0,0,t.color.r/255,0,0,0,0,t.color.g/255,0,0,0,0,t.color.b/255,0,0,0,t.color.a,0];s.setAttribute("values",_t(e))}:null},grayscale:t=>t?e=>{t.setAttribute("values",_t(function(t){return[.2126+.7874*(t=1-t),.7152-.7152*t,.0722-.0722*t,0,0,.2126-.2126*t,.7152+.2848*t,.0722-.0722*t,0,0,.2126-.2126*t,.7152-.7152*t,.0722+.9278*t,0,0,0,0,0,1,0]}(e)))}:null,"hue-rotate":t=>t?e=>t.setAttribute("values",At(e)):null,invert:(t,e,n)=>(t=ce(n,e))?e=>{e=At(e)+" "+At(1-e),t.map((t=>t.setAttribute("tableValues",e)))}:null,opacity:(t,e,n)=>(t=n.getElementById(e+"-A"))?e=>t.setAttribute("tableValues","0 "+At(e)):null,saturate:t=>t?e=>t.setAttribute("values",At(e)):null,sepia:t=>t?e=>t.setAttribute("values",_t(function(t){return[.393+.607*(t=1-t),.769-.769*t,.189-.189*t,0,0,.349-.349*t,.686+.314*t,.168-.168*t,0,0,.272-.272*t,.534-.534*t,.131+.869*t,0,0,0,0,0,1,0]}(e))):null};const ae=["R","G","B"];function ce(t,e){const n=ae.map((n=>t.getElementById(e+"-"+n)||null));return-1!==n.indexOf(null)?null:n}var fe={fill:te,"fill-opacity":Qt,stroke:te,"stroke-opacity":Qt,"stroke-width":Jt,"stroke-dashoffset":{f:At,i:H},"stroke-dasharray":Xt,opacity:Qt,transform:function(t,e,n,r){if(!(t=function(t,e){if(!t||"object"!=typeof t)return null;let n=!1;for(const r in t)t.hasOwnProperty(r)&&(t[r]&&t[r].length?(t[r].forEach((t=>{t.e&&(t.e=e(t.e))})),n=!0):delete t[r]);return n?t:null}(t,r)))return null;const i=(r,i,s,o=null)=>t[r]?n(i,t[r],s):e&&e[r]?e[r]:o;return e&&e.a&&t.o?e=>{const r=n(e,t.o,qt);return Yt.recomposeSelf(r,i("r",e,H,0)+r.a,i("k",e,X),i("s",e,X),i("t",e,X)).toString()}:t=>Yt.recomposeSelf(i("o",t,Pt,null),i("r",t,H,0),i("k",t,X),i("s",t,X),i("t",t,X)).toString()},"#filter":function(t,e,n,r,i,s,o,u){if(!e.items||!t||!t.length)return null;const l=function(t,e){const n=(t=t.map((t=>t&&le[t[0]]?(e.getElementById(t[1]),le[t[0]](e.getElementById(t[1]),t[1],e)):null))).length;return e=>{for(let r=0;r<n;r++)t[r]&&t[r](e[r].value)}}(e.items,u);return l?(t=function(t,e){return t.map((t=>(t.e=e(t.e),t)))}(t,r),e=>{l(n(e,t,ue))}):null},"#line":Ht,points:{f:_t,i:et},d:Ut,r:Jt,"#size":Mt,"#radius":It,_(t,e){if(Array.isArray(t))for(let n=0;n<t.length;n++)this[t[n]]=e;else this[t]=e}};let he=function(t,e,n=n){let r=!1,i=null;return function(s){r&&clearTimeout(r),r=setTimeout((()=>function(){let s=0,o=n.innerHeight,u=0,l=n.innerWidth,a=t.parentNode;for(;a instanceof Element;){let t=n.getComputedStyle(a);if("visible"!==t.overflowY||"visible"!==t.overflowX){let e=a.getBoundingClientRect();"visible"!==t.overflowY&&(s=Math.max(s,e.top),o=Math.min(o,e.bottom)),"visible"!==t.overflowX&&(u=Math.max(u,e.left),l=Math.min(l,e.right))}if(a===a.parentNode)break;a=a.parentNode}r=!1;let c=t.getBoundingClientRect(),f=Math.min(c.height,Math.max(0,s-c.top)),h=Math.min(c.height,Math.max(0,c.bottom-o)),d=Math.min(c.width,Math.max(0,u-c.left)),g=Math.min(c.width,Math.max(0,c.right-l)),p=(c.height-f-h)/c.height,y=(c.width-d-g)/c.width,m=Math.round(p*y*100);null!==i&&i===m||(i=m,e(m))}()),100)}};class de{constructor(t,e,n){const r=function(t){var e,n;const r=t&&1===(null===(e=t.ownerDocument)||void 0===e||null===(n=e.childNodes)||void 0===n?void 0:n.length)&&window.parent!==window,i={el:t,window:window};if(!r)return i;let s;try{s=window.parent.document}catch(t){return i}return i.window=window.parent,i.el=Array.from(s.querySelectorAll("iframe,object")).filter((t=>t.contentWindow===window))[0]||i.el,i}(t);e=Math.max(1,e||1),e=Math.min(e,100),this.el=r.el,this._handlers=[],this.onThresholdChange=n&&n.call?n:()=>{},this.thresholdPercent=e||1,this.currentVisibility=null,this.visibilityCalculator=he(this.el,this.onVisibilityUpdate.bind(this),r.window),this.bindScrollWatchers(),this.visibilityCalculator()}bindScrollWatchers(){let t=this.el.parentNode;for(;t&&(this._handlers.push({element:t,event:"scroll",handler:this.visibilityCalculator}),t.addEventListener("scroll",this.visibilityCalculator),t!==t.parentNode&&t!==document);)t=t.parentNode}onVisibilityUpdate(t){let e=this.currentVisibility>=this.thresholdPercent,n=t>=this.thresholdPercent;if(null===this.currentVisibility||e!==n)return this.currentVisibility=t,void this.onThresholdChange(n);this.currentVisibility=t}destruct(){this._handlers.forEach((t=>{t.element.removeEventListener(t.event,t.handler)}))}}class ge extends class{_svg;_rootId;constructor(t){this._id=0,this._running=!1,this._rollingBack=!1,this._animations=t.animations,this._settings=t.animationSettings,t.version<"2022-05-02"&&delete this._settings.speed,xt.forEach((t=>{this._settings[t.key]=this._settings[t.key]||t.def})),this.duration=t.animationSettings.duration,this.offset=t.animationSettings.offset||0,this.rollbackStartOffset=0,this._rootId=t.root,this._svg=t.svg,this._originalAnimations=t.originalAnimations,this._fTC=new B(this)}get svg(){return this._svg}get rootId(){return this._rootId}get alternate(){return this._settings.alternate}get fill(){return this._settings.fill}get iterations(){return this._settings.iterations}get direction(){return this._settings.direction}get speed(){return this._settings.speed}get fps(){return this._settings.fps}get wD(){return this._settings.w}get originalAnimations(){return this._originalAnimations}get maxFiniteDuration(){return this.iterations>0?this.iterations*this.duration:this.duration}static build(t,e){if(delete t.animationSettings,t.options=wt(t.options,t.root,"5c7f360c"),t.animations.map((e=>{e.settings=wt(e.s,t.root,"5c7f360c"),delete e.s,t.animationSettings||(t.animationSettings=e.settings)})),Object.assign(t,{originalAnimations:t.animations},function(t,e){if(ut=e,!t||!t.root||!Array.isArray(t.animations))return null;const n=mt(t);if(!n)return null;const r=t.animations.map((t=>yt(n,t))).filter((t=>!!t));return r.length?{svg:n,animations:r}:null}(t,e)),!t)return null;const n=t.options||{},r=new this(t);return{el:t.svg,options:n,player:r}}static push(t){return this.build(t)}static init(){const t=window.__SVGATOR_PLAYER__&&window.__SVGATOR_PLAYER__["5c7f360c"];Array.isArray(t)&&t.splice(0).forEach((t=>this.build(t)))}_apply(t,e={}){const n=this._animations,r=n.length;let i=0;for(let s=0;s<r;s++)e[s]?i++:(e[s]=n[s](t,1),e[s]&&i++);return i}_rollback(t){let e=1/0,n=null;this.rollbackStartOffset=t,this._rollingBack=!0,this._running=!0;const r=i=>{if(!this._rollingBack)return;null==n&&(n=i);let s=Math.round(t-(i-n)*this.speed);if(s>this.duration&&e!==1/0){const t=!!this.alternate&&s/this.duration%2>1;let e=s%this.duration;e+=t?this.duration:0,s=e||this.duration}const o=(this.fps?1e3/this.fps:0)*this.speed,u=Math.max(0,s);u<=e-o&&(this.offset=u,e=u,this._apply(u));const l=this.iterations>0&&-1===this.fill&&s>=this.maxFiniteDuration;(s<=0||this.offset<s||l)&&this.stop(),this._id=window.requestAnimationFrame(r)};this._id=window.requestAnimationFrame(r)}_start(t=0){let e,n=-1/0;const r={};this._running=!0;const i=s=>{e??=s;const o=Math.round((s-e)*this.speed+t),u=(this.fps?1e3/this.fps:0)*this.speed;o>=n+u&&!this._rollingBack&&this._fTC.cF(s,(()=>{this.offset=o,n=o;if(this._apply(o,r)===this._animations.length)return this.pause(!0),!0}))||(this._id=window.requestAnimationFrame(i))};this._id=window.requestAnimationFrame(i)}_pause(){this._id&&window.cancelAnimationFrame(this._id),this._running=!1}play(){if(!this._running)return this._rollingBack?this._rollback(this.offset):this._start(this.offset)}stop(){this._pause(),this.offset=0,this.rollbackStartOffset=0,this._rollingBack=!1,this._apply(0)}reachedToEnd(){return this.iterations>0&&this.offset>=this.iterations*this.duration}restart(t=!1){this.stop(t),this.play(t)}pause(){this._pause()}toggle(){return this._running?this.pause():this.reachedToEnd()?this.restart():this.play()}trigger(t,e){}_adjustOffset(t=!1){const e=this.alternate?2*this.duration:this.duration;if(t){if(!this._rollingBack&&0===this.offset)return void(this.offset=e);this._rollingBack&&(this.offset,this.maxFiniteDuration)}!this._rollingBack||this.rollbackStartOffset<=this.duration?0!==this.iterations&&(this.offset=Math.min(this.offset,this.maxFiniteDuration)):(this.offset=this.rollbackStartOffset-(this.rollbackStartOffset-this.offset)%e,this.rollbackStartOffset=0)}reverse(t=!1){if(!this._running)return this._adjustOffset(t),this._rollingBack=!this._rollingBack,t&&this.play(!1),void this.trigger("reverse",this.offset);this.pause(!1,!1),this._adjustOffset(),this._rollingBack=!this._rollingBack,this.play(!1),this.trigger("reverse",this.offset)}}{static build(t){let e=super.build(t,fe);if(!e)return null;let{el:n,options:r,player:i}=e;(class{static adjustLink(t){var e,n;const r=t&&1===(null===(e=t.ownerDocument)||void 0===e||null===(n=e.childNodes)||void 0===n?void 0:n.length)&&window.parent!==window,i=null==t?void 0:t.firstElementChild;r&&i&&"a"===i.tagName&&!i.getAttribute("target")&&i.setAttributeNS(null,"target","_parent")}static autoPlay(t,e,n,r=[]){if("click"===n.start){const i=()=>{switch(n.click){case"freeze":return!t._running&&t.reachedToEnd()?t.restart():t.toggle();case"restart":return t.offset>0?t.restart():t.play();case"reverse":return t._running?t.reverse():t.reachedToEnd()?1===t.fill?t.reverse(!0):t.restart():t.play();case"none":default:if(t._running)return;return t.reachedToEnd()?t.restart():t.play()}};return r.push({element:e,event:"click",handler:i}),void e.addEventListener("click",i)}if("hover"===n.start){const i=()=>t.reachedToEnd()?t.restart():t._rollingBack?t.reverse():t.play();r.push({element:e,event:"mouseenter",handler:i}),e.addEventListener("mouseenter",i);const s=()=>{switch(n.hover){case"freeze":return t.pause();case"reset":return t.stop();case"reverse":if(t.reverse(),t._running)return;return t.play();case"none":default:return}};return r.push({element:e,event:"mouseleave",handler:s}),void e.addEventListener("mouseleave",s)}if("scroll"!==n.start)"programmatic"!==n.start&&t.play();else{const i=new de(e,n.scroll||25,(function(e){e?t.reachedToEnd()?t.restart():t.play():t.pause()}));r.push({callback:()=>i.destruct()})}}}).adjustLink(n),i.play()}}return ge.init(),ge}));
(function(s,i,o,w,d,a,b){w[o]=w[o]||{};w[o][s]=w[o][s]||[];w[o][s].push(i);})('5c7f360c',{"root":"emcC0dT2tix1","version":"2025-04-07","animations":[{"elements":{"emcC0dT2tix2":{"transform":{"data":{"o":{"x":37.675747,"y":47.760784,"type":"corner"},"t":{"x":-37.83,"y":-47.924995}},"keys":{"r":[{"t":0,"v":-0.845727},{"t":5000,"v":-36.629684},{"t":9900,"v":-8.768628}]}}},"emcC0dT2tix16":{"transform":{"data":{"o":{"x":48.496348,"y":42.429272,"type":"corner"},"t":{"x":-48.496346,"y":-42.429267}},"keys":{"r":[{"t":0,"v":0.683377},{"t":5000,"v":70.641334},{"t":9900,"v":19.42239}]}}},"emcC0dT2tix31":{"transform":{"data":{"o":{"x":32.368051,"y":31.17,"type":"corner"},"t":{"x":-32.382502,"y":-31.179935}},"keys":{"r":[{"t":0,"v":-0.830968},{"t":5000,"v":-155.18166},{"t":9900,"v":-16.687936}]}}},"emcC0dT2tix53":{"transform":{"data":{"o":{"x":37.031868,"y":27.69,"type":"corner"},"t":{"x":-36.744877,"y":-28.089998}},"keys":{"r":[{"t":0,"v":0},{"t":5000,"v":111.024939},{"t":9900,"v":7.316521}]}}},"emcC0dT2tix58":{"transform":{"data":{"o":{"x":41.871878,"y":21.78,"type":"corner"},"t":{"x":-41.871877,"y":-21.779999}},"keys":{"r":[{"t":0,"v":1.026537},{"t":5000,"v":73.056077},{"t":9900,"v":13.911366}]}}},"emcC0dT2tix73":{"transform":{"data":{"o":{"x":27.490001,"y":27.898172,"type":"corner"},"t":{"x":-27.49,"y":-27.898168}},"keys":{"r":[{"t":0,"v":0},{"t":5000,"v":35.88902},{"t":9900,"v":-22.184644}]}}},"emcC0dT2tix109":{"transform":{"data":{"o":{"x":135.33781,"y":207.03926,"type":"corner"},"t":{"x":-135.33781,"y":-207.03926}},"keys":{"r":[{"t":0,"v":720,"e":[0.415,0.08,0.115,0.955]},{"t":7700,"v":0,"e":[1,0]}]}},"fill":[{"t":0,"v":{"t":"c","v":{"r":255,"g":255,"b":255,"a":1}}},{"t":7700,"v":{"t":"c","v":{"r":210,"g":219,"b":236,"a":1}}}]},"emcC0dT2tix110":{"transform":{"data":{"o":{"x":11.12,"y":29.9,"type":"corner"},"s":{"x":0.3,"y":0.3},"t":{"x":-95.902813,"y":-108.465}},"keys":{"r":[{"t":0,"v":-720,"e":[0.415,0.08,0.115,0.955]},{"t":7700,"v":0,"e":[1,0]}]}}}},"s":"MCDBkN2Y0OWJVZGRlZWYViZGFlZGUyZThlNzlSiQ2IzYWFhOWE5YTlhLOWE1RDliZGRlMmViZTGVkY2VkZTJlOGU3OWBJiM2FhYTU5YmUyZWRVkZWViZGFlZFJlMmU4GTGU3ZWM5YmIzYWFLYYTU5YmRmZTJlNWU1OWNJiM2FhYTU5YmRhZTVUlZFNkZWViZTdkYWVkOZGU5Yk1iM2RmZGFlNYVFlY2RlYTU5YmVjZTJlkZWRlZGQ5YmIzYWFIhNVI5YkNkZmU5ZWM5OYmIzYWFhOWE5YTU5YEmYwOWJiM2Q0OWJhZGLIxZGZiMWRmS2RiZGNThZVJkYWFlYjJhZmRlPUWFmYWRkYWFjYWJiMGWIxYWZhZGIwYjBhZUY1kYmRjZGZhZGFlZGRUhOWIwZGViMGRjZGZkAYmRmZGRhYWRkYjFhZEWIxZGNiMmIxYjBHYWBRhYmIyYjJhYWRiYjFXSYWZkYmRhZGVhZVdkAY2FlYTk5YmE1OWJhYGUZhOWFjOWJhNUI5YmHFhYTlhZDliYTU5YmFVhYTlhZUM5YkxhNTliRRWFhYTlhZjliYTU5YBmFhYTliMDliYTU5YmHFhYTliMTliYTU5YmFThYTliMjliYTU5YmFhQYWFhOTliZDZmNg|"}],"options":"MIDAxMDg4MmY4MDgxNmDVFN2Y4MTJmNDcyZjcL5N2M2ZTcxMmY4YQ|"},'__SVGATOR_PLAYER__',window,document)
]]></script>
</svg>
